<svg width="27" height="32" viewBox="0 0 27 32" fill="none" xmlns="http://www.w3.org/2000/svg">
<path d="M10 19.5V18.0941C10 16.5477 11.2536 15.2941 12.8 15.2941V15.2941M10 19.5V20.9059C10 22.4523 11.2536 23.7059 12.8 23.7059V23.7059M10 19.5H14.8M14.8 19.5L15.1519 19.6682C15.4428 19.8072 15.6808 20.0367 15.8302 20.3224V20.3224C15.9417 20.5357 16 20.7728 16 21.0135V21.7941V23.038C16 23.2204 15.9254 23.3948 15.7936 23.5208V23.5208C15.6694 23.6396 15.5041 23.7059 15.3321 23.7059H14.8H12.8M14.8 19.5L15.3499 18.9744C15.5155 18.8161 15.6542 18.6317 15.7604 18.4287V18.4287C15.9178 18.1278 16 17.7932 16 17.4536V17.2059V15.962C16 15.7796 15.9254 15.6052 15.7936 15.4792V15.4792C15.6694 15.3604 15.5041 15.2941 15.3321 15.2941H14.8H12.8M12.8 13C12.8 14.0452 12.8 15.2941 12.8 15.2941M12.8 23.7059C12.8 24.7511 12.8 26 12.8 26" stroke="black" stroke-width="2" stroke-linecap="round" stroke-linejoin="round"/>
<path d="M2.48366 13.5327L3.03551 12.429C4.7399 9.0202 9.43887 8.875 13.25 8.875C17.0611 8.875 21.7601 9.0202 23.4645 12.429L24.0163 13.5327C24.3366 14.1731 24.5483 14.8623 24.6429 15.572L25.273 20.2974C25.4234 21.4255 25.3963 22.5702 25.1927 23.69L24.9038 25.2788C24.6426 26.7157 23.8947 28.0188 22.7859 28.9692C21.6335 29.957 20.1657 30.5 18.6478 30.5H8.51876C6.89341 30.5 5.32167 29.9186 4.08761 28.8608C3.05305 27.974 2.30834 26.7973 1.94982 25.4827L1.59532 24.1828C1.20241 22.7422 1.10167 21.2375 1.29903 19.7573L1.85707 15.572C1.9517 14.8623 2.16344 14.1731 2.48366 13.5327Z" stroke="black" stroke-width="2" stroke-linecap="round" stroke-linejoin="round"/>
<path d="M18.4066 6H8.1066C7.2193 6 6.5 5.2807 6.5 4.3934C6.5 3.59387 7.0879 2.91601 7.87939 2.80294L9.0636 2.63377C9.67143 2.54694 10.2347 2.26531 10.6689 1.83115C11.201 1.29897 11.9228 1 12.6754 1H13.3398C14.0826 1 14.7951 1.29511 15.3204 1.82042C15.7609 2.26087 16.3356 2.54195 16.9537 2.61921L18.6042 2.82553C19.4016 2.9252 20 3.60303 20 4.40661C20 5.28662 19.2866 6 18.4066 6Z" stroke="black" stroke-width="2" stroke-linecap="round" stroke-linejoin="round"/>
</svg>
