<svg width="40" height="40" viewBox="0 0 40 40" fill="none" xmlns="http://www.w3.org/2000/svg">
<path d="M20 0C21.9822 0 24.4667 0.226 26.5356 0.856C27.5667 1.168 28.6467 1.626 29.5044 2.322C30.4067 3.052 31.1111 4.096 31.1111 5.428C31.1111 6.712 30.4578 7.772 29.6733 8.56C29.2331 8.9967 28.7388 9.38658 28.2 9.722C34.8333 12.568 40 18.67 40 26C40 31.112 37.7333 34.772 33.8533 37.05C30.1311 39.234 25.1778 40 20 40C14.8222 40 9.86667 39.234 6.14667 37.05C2.26667 34.772 0 31.11 0 26C0 18.67 5.16667 12.568 11.8 9.722C11.2613 9.38724 10.7669 8.99804 10.3267 8.562C9.54222 7.77 8.88889 6.71 8.88889 5.426C8.88889 4.094 9.59333 3.05 10.4956 2.32C11.3533 1.624 12.4333 1.166 13.4644 0.854C15.5333 0.226 18.0178 0 20 0ZM20 12C12.2489 12 4.44444 18.184 4.44444 26C4.44444 29.888 6.06667 32.228 8.57556 33.7C11.2422 35.266 15.1778 36 20 36C24.8222 36 28.7556 35.266 31.4244 33.7C33.9333 32.228 35.5556 29.888 35.5556 26C35.5556 18.184 27.7511 12 20 12ZM20 4C18.3 4 16.34 4.202 14.8867 4.644C14.1533 4.868 13.7022 5.104 13.4689 5.294L13.3533 5.404C13.3461 5.41297 13.3394 5.42232 13.3333 5.432L13.3489 5.496C13.4143 5.64547 13.5126 5.78151 13.6378 5.896C13.9489 6.208 14.4711 6.564 15.1978 6.902C16.6644 7.586 18.5378 8 20 8C21.4622 8 23.3378 7.586 24.8022 6.902C25.5289 6.564 26.0489 6.208 26.3622 5.894C26.4872 5.7801 26.5854 5.64475 26.6511 5.496L26.6667 5.432L26.6044 5.36C26.5812 5.33698 26.5567 5.31496 26.5311 5.294C26.2978 5.106 25.8467 4.868 25.1133 4.644C23.66 4.204 21.7 4 20 4Z" fill="black"/>
<path d="M15.3334 17.6001V16.1001H13.8334V17.6001H15.3334ZM15.3334 30.8001H13.8334V32.3001H15.3334V30.8001ZM24.6667 30.8001V32.3001C25.0373 32.3001 25.3947 32.163 25.6702 31.9151L24.6667 30.8001ZM24.6667 24.8001L25.9779 24.0717C25.821 23.7892 25.577 23.5649 25.2823 23.4323L24.6667 24.8001ZM23.3334 17.6001L23.9489 16.2323C23.7554 16.1452 23.5456 16.1001 23.3334 16.1001V17.6001ZM24.6667 23.0001L25.6702 24.1151C25.7934 24.0042 25.8974 23.8736 25.9779 23.7286L24.6667 23.0001ZM24.6667 18.2001L25.9779 17.4717C25.821 17.1892 25.577 16.9649 25.2823 16.8323L24.6667 18.2001ZM25.3334 30.2001L26.3368 31.3151C26.6529 31.0306 26.8334 30.6254 26.8334 30.2001H25.3334ZM25.3334 26.0001H26.8334C26.8334 25.7452 26.7684 25.4945 26.6446 25.2717L25.3334 26.0001ZM25.3334 19.4001H26.8334C26.8334 19.1452 26.7684 18.8945 26.6446 18.6717L25.3334 19.4001ZM25.3334 21.8001L26.6446 22.5286C26.7684 22.3058 26.8334 22.0551 26.8334 21.8001H25.3334ZM23.3334 32.3001H24.6667V29.3001H23.3334V32.3001ZM13.8334 17.6001V24.2001H16.8334V17.6001H13.8334ZM13.8334 24.2001V30.8001H16.8334V24.2001H13.8334ZM23.3334 16.1001H20V19.1001H23.3334V16.1001ZM20 16.1001H15.3334V19.1001H20V16.1001ZM18.5 13.4001C18.5 13.4034 18.5 13.4066 18.5 13.4098C18.5 13.413 18.5 13.4162 18.5 13.4194C18.5 13.4226 18.5 13.4258 18.5 13.4291C18.5 13.4323 18.5 13.4355 18.5 13.4388C18.5 13.442 18.5 13.4452 18.5 13.4485C18.5 13.4517 18.5 13.4549 18.5 13.4582C18.5 13.4614 18.5 13.4647 18.5 13.4679C18.5 13.4712 18.5 13.4744 18.5 13.4777C18.5 13.4809 18.5 13.4842 18.5 13.4875C18.5 13.4907 18.5 13.494 18.5 13.4973C18.5 13.5005 18.5 13.5038 18.5 13.5071C18.5 13.5104 18.5 13.5137 18.5 13.5169C18.5 13.5202 18.5 13.5235 18.5 13.5268C18.5 13.5301 18.5 13.5334 18.5 13.5367C18.5 13.54 18.5 13.5433 18.5 13.5466C18.5 13.5499 18.5 13.5532 18.5 13.5565C18.5 13.5598 18.5 13.5631 18.5 13.5664C18.5 13.5698 18.5 13.5731 18.5 13.5764C18.5 13.5797 18.5 13.583 18.5 13.5864C18.5 13.5897 18.5 13.593 18.5 13.5964C18.5 13.5997 18.5 13.603 18.5 13.6064C18.5 13.6097 18.5 13.6131 18.5 13.6164C18.5 13.6197 18.5 13.6231 18.5 13.6264C18.5 13.6298 18.5 13.6331 18.5 13.6365C18.5 13.6399 18.5 13.6432 18.5 13.6466C18.5 13.6499 18.5 13.6533 18.5 13.6567C18.5 13.66 18.5 13.6634 18.5 13.6668C18.5 13.6702 18.5 13.6735 18.5 13.6769C18.5 13.6803 18.5 13.6837 18.5 13.6871C18.5 13.6905 18.5 13.6938 18.5 13.6972C18.5 13.7006 18.5 13.704 18.5 13.7074C18.5 13.7108 18.5 13.7142 18.5 13.7176C18.5 13.721 18.5 13.7244 18.5 13.7278C18.5 13.7312 18.5 13.7346 18.5 13.7381C18.5 13.7415 18.5 13.7449 18.5 13.7483C18.5 13.7517 18.5 13.7551 18.5 13.7586C18.5 13.762 18.5 13.7654 18.5 13.7688C18.5 13.7723 18.5 13.7757 18.5 13.7791C18.5 13.7826 18.5 13.786 18.5 13.7894C18.5 13.7929 18.5 13.7963 18.5 13.7997C18.5 13.8032 18.5 13.8066 18.5 13.8101C18.5 13.8135 18.5 13.817 18.5 13.8204C18.5 13.8239 18.5 13.8273 18.5 13.8308C18.5 13.8343 18.5 13.8377 18.5 13.8412C18.5 13.8446 18.5 13.8481 18.5 13.8516C18.5 13.855 18.5 13.8585 18.5 13.862C18.5 13.8654 18.5 13.8689 18.5 13.8724C18.5 13.8759 18.5 13.8794 18.5 13.8828C18.5 13.8863 18.5 13.8898 18.5 13.8933C18.5 13.8968 18.5 13.9003 18.5 13.9037C18.5 13.9072 18.5 13.9107 18.5 13.9142C18.5 13.9177 18.5 13.9212 18.5 13.9247C18.5 13.9282 18.5 13.9317 18.5 13.9352C18.5 13.9387 18.5 13.9422 18.5 13.9457C18.5 13.9492 18.5 13.9527 18.5 13.9562C18.5 13.9598 18.5 13.9633 18.5 13.9668C18.5 13.9703 18.5 13.9738 18.5 13.9773C18.5 13.9809 18.5 13.9844 18.5 13.9879C18.5 13.9914 18.5 13.995 18.5 13.9985C18.5 14.002 18.5 14.0055 18.5 14.0091C18.5 14.0126 18.5 14.0161 18.5 14.0197C18.5 14.0232 18.5 14.0267 18.5 14.0303C18.5 14.0338 18.5 14.0374 18.5 14.0409C18.5 14.0444 18.5 14.048 18.5 14.0515C18.5 14.0551 18.5 14.0586 18.5 14.0622C18.5 14.0657 18.5 14.0693 18.5 14.0728C18.5 14.0764 18.5 14.0799 18.5 14.0835C18.5 14.0871 18.5 14.0906 18.5 14.0942C18.5 14.0977 18.5 14.1013 18.5 14.1049C18.5 14.1084 18.5 14.112 18.5 14.1156C18.5 14.1191 18.5 14.1227 18.5 14.1263C18.5 14.1298 18.5 14.1334 18.5 14.137C18.5 14.1406 18.5 14.1441 18.5 14.1477C18.5 14.1513 18.5 14.1549 18.5 14.1585C18.5 14.162 18.5 14.1656 18.5 14.1692C18.5 14.1728 18.5 14.1764 18.5 14.18C18.5 14.1835 18.5 14.1871 18.5 14.1907C18.5 14.1943 18.5 14.1979 18.5 14.2015C18.5 14.2051 18.5 14.2087 18.5 14.2123C18.5 14.2159 18.5 14.2195 18.5 14.2231C18.5 14.2267 18.5 14.2303 18.5 14.2339C18.5 14.2375 18.5 14.2411 18.5 14.2447C18.5 14.2483 18.5 14.2519 18.5 14.2555C18.5 14.2591 18.5 14.2627 18.5 14.2663C18.5 14.2699 18.5 14.2735 18.5 14.2772C18.5 14.2808 18.5 14.2844 18.5 14.288C18.5 14.2916 18.5 14.2952 18.5 14.2989C18.5 14.3025 18.5 14.3061 18.5 14.3097C18.5 14.3133 18.5 14.3169 18.5 14.3206C18.5 14.3242 18.5 14.3278 18.5 14.3314C18.5 14.3351 18.5 14.3387 18.5 14.3423C18.5 14.3459 18.5 14.3496 18.5 14.3532C18.5 14.3568 18.5 14.3605 18.5 14.3641C18.5 14.3677 18.5 14.3714 18.5 14.375C18.5 14.3786 18.5 14.3823 18.5 14.3859C18.5 14.3895 18.5 14.3932 18.5 14.3968C18.5 14.4005 18.5 14.4041 18.5 14.4077C18.5 14.4114 18.5 14.415 18.5 14.4187C18.5 14.4223 18.5 14.4259 18.5 14.4296C18.5 14.4332 18.5 14.4369 18.5 14.4405C18.5 14.4442 18.5 14.4478 18.5 14.4515C18.5 14.4551 18.5 14.4588 18.5 14.4624C18.5 14.4661 18.5 14.4697 18.5 14.4734C18.5 14.477 18.5 14.4807 18.5 14.4843C18.5 14.488 18.5 14.4916 18.5 14.4953C18.5 14.4989 18.5 14.5026 18.5 14.5062C18.5 14.5099 18.5 14.5136 18.5 14.5172C18.5 14.5209 18.5 14.5245 18.5 14.5282C18.5 14.5318 18.5 14.5355 18.5 14.5392C18.5 14.5428 18.5 14.5465 18.5 14.5501C18.5 14.5538 18.5 14.5575 18.5 14.5611C18.5 14.5648 18.5 14.5685 18.5 14.5721C18.5 14.5758 18.5 14.5794 18.5 14.5831C18.5 14.5868 18.5 14.5904 18.5 14.5941C18.5 14.5978 18.5 14.6014 18.5 14.6051C18.5 14.6088 18.5 14.6124 18.5 14.6161C18.5 14.6198 18.5 14.6235 18.5 14.6271C18.5 14.6308 18.5 14.6345 18.5 14.6381C18.5 14.6418 18.5 14.6455 18.5 14.6491C18.5 14.6528 18.5 14.6565 18.5 14.6602C18.5 14.6638 18.5 14.6675 18.5 14.6712C18.5 14.6749 18.5 14.6785 18.5 14.6822C18.5 14.6859 18.5 14.6895 18.5 14.6932C18.5 14.6969 18.5 14.7006 18.5 14.7042C18.5 14.7079 18.5 14.7116 18.5 14.7153C18.5 14.7189 18.5 14.7226 18.5 14.7263C18.5 14.73 18.5 14.7337 18.5 14.7373C18.5 14.741 18.5 14.7447 18.5 14.7484C18.5 14.752 18.5 14.7557 18.5 14.7594C18.5 14.7631 18.5 14.7667 18.5 14.7704C18.5 14.7741 18.5 14.7778 18.5 14.7815C18.5 14.7851 18.5 14.7888 18.5 14.7925C18.5 14.7962 18.5 14.7998 18.5 14.8035C18.5 14.8072 18.5 14.8109 18.5 14.8146C18.5 14.8182 18.5 14.8219 18.5 14.8256C18.5 14.8293 18.5 14.8329 18.5 14.8366C18.5 14.8403 18.5 14.844 18.5 14.8477C18.5 14.8513 18.5 14.855 18.5 14.8587C18.5 14.8624 18.5 14.866 18.5 14.8697C18.5 14.8734 18.5 14.8771 18.5 14.8808C18.5 14.8844 18.5 14.8881 18.5 14.8918C18.5 14.8955 18.5 14.8991 18.5 14.9028C18.5 14.9065 18.5 14.9102 18.5 14.9139C18.5 14.9175 18.5 14.9212 18.5 14.9249C18.5 14.9286 18.5 14.9322 18.5 14.9359C18.5 14.9396 18.5 14.9433 18.5 14.9469C18.5 14.9506 18.5 14.9543 18.5 14.958C18.5 14.9616 18.5 14.9653 18.5 14.969C18.5 14.9727 18.5 14.9763 18.5 14.98C18.5 14.9837 18.5 14.9874 18.5 14.991C18.5 14.9947 18.5 14.9984 18.5 15.002C18.5 15.0057 18.5 15.0094 18.5 15.0131C18.5 15.0167 18.5 15.0204 18.5 15.0241C18.5 15.0277 18.5 15.0314 18.5 15.0351C18.5 15.0387 18.5 15.0424 18.5 15.0461C18.5 15.0498 18.5 15.0534 18.5 15.0571C18.5 15.0608 18.5 15.0644 18.5 15.0681C18.5 15.0718 18.5 15.0754 18.5 15.0791C18.5 15.0827 18.5 15.0864 18.5 15.0901C18.5 15.0937 18.5 15.0974 18.5 15.1011C18.5 15.1047 18.5 15.1084 18.5 15.1121C18.5 15.1157 18.5 15.1194 18.5 15.123C18.5 15.1267 18.5 15.1304 18.5 15.134C18.5 15.1377 18.5 15.1413 18.5 15.145C18.5 15.1486 18.5 15.1523 18.5 15.156C18.5 15.1596 18.5 15.1633 18.5 15.1669C18.5 15.1706 18.5 15.1742 18.5 15.1779C18.5 15.1815 18.5 15.1852 18.5 15.1888C18.5 15.1925 18.5 15.1961 18.5 15.1998C18.5 15.2034 18.5 15.2071 18.5 15.2107C18.5 15.2144 18.5 15.218 18.5 15.2217C18.5 15.2253 18.5 15.2289 18.5 15.2326C18.5 15.2362 18.5 15.2399 18.5 15.2435C18.5 15.2472 18.5 15.2508 18.5 15.2544C18.5 15.2581 18.5 15.2617 18.5 15.2654C18.5 15.269 18.5 15.2726 18.5 15.2763C18.5 15.2799 18.5 15.2835 18.5 15.2872C18.5 15.2908 18.5 15.2944 18.5 15.2981C18.5 15.3017 18.5 15.3053 18.5 15.309C18.5 15.3126 18.5 15.3162 18.5 15.3198C18.5 15.3235 18.5 15.3271 18.5 15.3307C18.5 15.3343 18.5 15.338 18.5 15.3416C18.5 15.3452 18.5 15.3488 18.5 15.3524C18.5 15.3561 18.5 15.3597 18.5 15.3633C18.5 15.3669 18.5 15.3705 18.5 15.3741C18.5 15.3778 18.5 15.3814 18.5 15.385C18.5 15.3886 18.5 15.3922 18.5 15.3958C18.5 15.3994 18.5 15.403 18.5 15.4066C18.5 15.4102 18.5 15.4138 18.5 15.4175C18.5 15.4211 18.5 15.4247 18.5 15.4283C18.5 15.4319 18.5 15.4355 18.5 15.4391C18.5 15.4427 18.5 15.4462 18.5 15.4498C18.5 15.4534 18.5 15.457 18.5 15.4606C18.5 15.4642 18.5 15.4678 18.5 15.4714C18.5 15.475 18.5 15.4786 18.5 15.4822C18.5 15.4857 18.5 15.4893 18.5 15.4929C18.5 15.4965 18.5 15.5001 18.5 15.5037C18.5 15.5072 18.5 15.5108 18.5 15.5144C18.5 15.518 18.5 15.5215 18.5 15.5251C18.5 15.5287 18.5 15.5323 18.5 15.5358C18.5 15.5394 18.5 15.543 18.5 15.5465C18.5 15.5501 18.5 15.5537 18.5 15.5572C18.5 15.5608 18.5 15.5644 18.5 15.5679C18.5 15.5715 18.5 15.575 18.5 15.5786C18.5 15.5821 18.5 15.5857 18.5 15.5892C18.5 15.5928 18.5 15.5963 18.5 15.5999C18.5 15.6034 18.5 15.607 18.5 15.6105C18.5 15.6141 18.5 15.6176 18.5 15.6212C18.5 15.6247 18.5 15.6282 18.5 15.6318C18.5 15.6353 18.5 15.6389 18.5 15.6424C18.5 15.6459 18.5 15.6495 18.5 15.653C18.5 15.6565 18.5 15.66 18.5 15.6636C18.5 15.6671 18.5 15.6706 18.5 15.6741C18.5 15.6777 18.5 15.6812 18.5 15.6847C18.5 15.6882 18.5 15.6917 18.5 15.6952C18.5 15.6988 18.5 15.7023 18.5 15.7058C18.5 15.7093 18.5 15.7128 18.5 15.7163C18.5 15.7198 18.5 15.7233 18.5 15.7268C18.5 15.7303 18.5 15.7338 18.5 15.7373C18.5 15.7408 18.5 15.7443 18.5 15.7478C18.5 15.7513 18.5 15.7548 18.5 15.7583C18.5 15.7618 18.5 15.7652 18.5 15.7687C18.5 15.7722 18.5 15.7757 18.5 15.7792C18.5 15.7826 18.5 15.7861 18.5 15.7896C18.5 15.7931 18.5 15.7965 18.5 15.8C18.5 15.8035 18.5 15.8069 18.5 15.8104C18.5 15.8139 18.5 15.8173 18.5 15.8208C18.5 15.8243 18.5 15.8277 18.5 15.8312C18.5 15.8346 18.5 15.8381 18.5 15.8415C18.5 15.845 18.5 15.8484 18.5 15.8519C18.5 15.8553 18.5 15.8588 18.5 15.8622C18.5 15.8657 18.5 15.8691 18.5 15.8725C18.5 15.876 18.5 15.8794 18.5 15.8828C18.5 15.8863 18.5 15.8897 18.5 15.8931C18.5 15.8965 18.5 15.9 18.5 15.9034C18.5 15.9068 18.5 15.9102 18.5 15.9136C18.5 15.9171 18.5 15.9205 18.5 15.9239C18.5 15.9273 18.5 15.9307 18.5 15.9341C18.5 15.9375 18.5 15.9409 18.5 15.9443C18.5 15.9477 18.5 15.9511 18.5 15.9545C18.5 15.9579 18.5 15.9613 18.5 15.9647C18.5 15.9681 18.5 15.9714 18.5 15.9748C18.5 15.9782 18.5 15.9816 18.5 15.985C18.5 15.9883 18.5 15.9917 18.5 15.9951C18.5 15.9985 18.5 16.0018 18.5 16.0052C18.5 16.0086 18.5 16.0119 18.5 16.0153C18.5 16.0186 18.5 16.022 18.5 16.0254C18.5 16.0287 18.5 16.0321 18.5 16.0354C18.5 16.0388 18.5 16.0421 18.5 16.0455C18.5 16.0488 18.5 16.0521 18.5 16.0555C18.5 16.0588 18.5 16.0621 18.5 16.0655C18.5 16.0688 18.5 16.0721 18.5 16.0755C18.5 16.0788 18.5 16.0821 18.5 16.0854C18.5 16.0888 18.5 16.0921 18.5 16.0954C18.5 16.0987 18.5 16.102 18.5 16.1053C18.5 16.1086 18.5 16.1119 18.5 16.1152C18.5 16.1185 18.5 16.1218 18.5 16.1251C18.5 16.1284 18.5 16.1317 18.5 16.135C18.5 16.1383 18.5 16.1416 18.5 16.1448C18.5 16.1481 18.5 16.1514 18.5 16.1547C18.5 16.158 18.5 16.1612 18.5 16.1645C18.5 16.1678 18.5 16.171 18.5 16.1743C18.5 16.1776 18.5 16.1808 18.5 16.1841C18.5 16.1873 18.5 16.1906 18.5 16.1938C18.5 16.1971 18.5 16.2003 18.5 16.2036C18.5 16.2068 18.5 16.21 18.5 16.2133C18.5 16.2165 18.5 16.2197 18.5 16.223C18.5 16.2262 18.5 16.2294 18.5 16.2327C18.5 16.2359 18.5 16.2391 18.5 16.2423C18.5 16.2455 18.5 16.2487 18.5 16.2519C18.5 16.2551 18.5 16.2584 18.5 16.2616C18.5 16.2648 18.5 16.268 18.5 16.2711C18.5 16.2743 18.5 16.2775 18.5 16.2807C18.5 16.2839 18.5 16.2871 18.5 16.2903C18.5 16.2934 18.5 16.2966 18.5 16.2998C18.5 16.303 18.5 16.3061 18.5 16.3093C18.5 16.3125 18.5 16.3156 18.5 16.3188C18.5 16.3219 18.5 16.3251 18.5 16.3282C18.5 16.3314 18.5 16.3345 18.5 16.3377C18.5 16.3408 18.5 16.344 18.5 16.3471C18.5 16.3502 18.5 16.3534 18.5 16.3565C18.5 16.3596 18.5 16.3628 18.5 16.3659C18.5 16.369 18.5 16.3721 18.5 16.3752C18.5 16.3783 18.5 16.3814 18.5 16.3846C18.5 16.3877 18.5 16.3908 18.5 16.3939C18.5 16.397 18.5 16.4 18.5 16.4031C18.5 16.4062 18.5 16.4093 18.5 16.4124C18.5 16.4155 18.5 16.4186 18.5 16.4216C18.5 16.4247 18.5 16.4278 18.5 16.4308C18.5 16.4339 18.5 16.437 18.5 16.44C18.5 16.4431 18.5 16.4461 18.5 16.4492C18.5 16.4522 18.5 16.4553 18.5 16.4583C18.5 16.4614 18.5 16.4644 18.5 16.4674C18.5 16.4705 18.5 16.4735 18.5 16.4765C18.5 16.4796 18.5 16.4826 18.5 16.4856C18.5 16.4886 18.5 16.4916 18.5 16.4946C18.5 16.4976 18.5 16.5006 18.5 16.5036C18.5 16.5066 18.5 16.5096 18.5 16.5126C18.5 16.5156 18.5 16.5186 18.5 16.5216C18.5 16.5246 18.5 16.5276 18.5 16.5305C18.5 16.5335 18.5 16.5365 18.5 16.5394C18.5 16.5424 18.5 16.5454 18.5 16.5483C18.5 16.5513 18.5 16.5542 18.5 16.5572C18.5 16.5601 18.5 16.5631 18.5 16.566C18.5 16.569 18.5 16.5719 18.5 16.5748C18.5 16.5778 18.5 16.5807 18.5 16.5836C18.5 16.5865 18.5 16.5895 18.5 16.5924C18.5 16.5953 18.5 16.5982 18.5 16.6011C18.5 16.604 18.5 16.6069 18.5 16.6098C18.5 16.6127 18.5 16.6156 18.5 16.6185C18.5 16.6214 18.5 16.6243 18.5 16.6271C18.5 16.63 18.5 16.6329 18.5 16.6358C18.5 16.6386 18.5 16.6415 18.5 16.6443C18.5 16.6472 18.5 16.6501 18.5 16.6529C18.5 16.6558 18.5 16.6586 18.5 16.6614C18.5 16.6643 18.5 16.6671 18.5 16.67C18.5 16.6728 18.5 16.6756 18.5 16.6784C18.5 16.6813 18.5 16.6841 18.5 16.6869C18.5 16.6897 18.5 16.6925 18.5 16.6953C18.5 16.6981 18.5 16.7009 18.5 16.7037C18.5 16.7065 18.5 16.7093 18.5 16.7121C18.5 16.7149 18.5 16.7176 18.5 16.7204C18.5 16.7232 18.5 16.726 18.5 16.7287C18.5 16.7315 18.5 16.7343 18.5 16.737C18.5 16.7398 18.5 16.7425 18.5 16.7453C18.5 16.748 18.5 16.7508 18.5 16.7535C18.5 16.7562 18.5 16.759 18.5 16.7617C18.5 16.7644 18.5 16.7671 18.5 16.7698C18.5 16.7726 18.5 16.7753 18.5 16.778C18.5 16.7807 18.5 16.7834 18.5 16.7861C18.5 16.7888 18.5 16.7915 18.5 16.7941C18.5 16.7968 18.5 16.7995 18.5 16.8022C18.5 16.8049 18.5 16.8075 18.5 16.8102C18.5 16.8129 18.5 16.8155 18.5 16.8182C18.5 16.8208 18.5 16.8235 18.5 16.8261C18.5 16.8288 18.5 16.8314 18.5 16.834C18.5 16.8367 18.5 16.8393 18.5 16.8419C18.5 16.8446 18.5 16.8472 18.5 16.8498C18.5 16.8524 18.5 16.855 18.5 16.8576C18.5 16.8602 18.5 16.8628 18.5 16.8654C18.5 16.868 18.5 16.8706 18.5 16.8732C18.5 16.8757 18.5 16.8783 18.5 16.8809C18.5 16.8835 18.5 16.886 18.5 16.8886C18.5 16.8912 18.5 16.8937 18.5 16.8963C18.5 16.8988 18.5 16.9013 18.5 16.9039C18.5 16.9064 18.5 16.909 18.5 16.9115C18.5 16.914 18.5 16.9165 18.5 16.9191C18.5 16.9216 18.5 16.9241 18.5 16.9266C18.5 16.9291 18.5 16.9316 18.5 16.9341C18.5 16.9366 18.5 16.9391 18.5 16.9416C18.5 16.944 18.5 16.9465 18.5 16.949C18.5 16.9515 18.5 16.9539 18.5 16.9564C18.5 16.9588 18.5 16.9613 18.5 16.9638C18.5 16.9662 18.5 16.9686 18.5 16.9711C18.5 16.9735 18.5 16.976 18.5 16.9784C18.5 16.9808 18.5 16.9832 18.5 16.9857C18.5 16.9881 18.5 16.9905 18.5 16.9929C18.5 16.9953 18.5 16.9977 18.5 17.0001C18.5 17.0025 18.5 17.0049 18.5 17.0072C18.5 17.0096 18.5 17.012 18.5 17.0144C18.5 17.0167 18.5 17.0191 18.5 17.0215C18.5 17.0238 18.5 17.0262 18.5 17.0285C18.5 17.0309 18.5 17.0332 18.5 17.0355C18.5 17.0379 18.5 17.0402 18.5 17.0425C18.5 17.0448 18.5 17.0472 18.5 17.0495C18.5 17.0518 18.5 17.0541 18.5 17.0564C18.5 17.0587 18.5 17.061 18.5 17.0633C18.5 17.0655 18.5 17.0678 18.5 17.0701C18.5 17.0724 18.5 17.0746 18.5 17.0769C18.5 17.0792 18.5 17.0814 18.5 17.0837C18.5 17.0859 18.5 17.0882 18.5 17.0904C18.5 17.0926 18.5 17.0949 18.5 17.0971C18.5 17.0993 18.5 17.1016 18.5 17.1038C18.5 17.106 18.5 17.1082 18.5 17.1104C18.5 17.1126 18.5 17.1148 18.5 17.117C18.5 17.1192 18.5 17.1213 18.5 17.1235C18.5 17.1257 18.5 17.1279 18.5 17.13C18.5 17.1322 18.5 17.1344 18.5 17.1365C18.5 17.1387 18.5 17.1408 18.5 17.1429C18.5 17.1451 18.5 17.1472 18.5 17.1493C18.5 17.1515 18.5 17.1536 18.5 17.1557C18.5 17.1578 18.5 17.1599 18.5 17.162C18.5 17.1641 18.5 17.1662 18.5 17.1683C18.5 17.1704 18.5 17.1725 18.5 17.1746C18.5 17.1766 18.5 17.1787 18.5 17.1808C18.5 17.1828 18.5 17.1849 18.5 17.1869C18.5 17.189 18.5 17.191 18.5 17.1931C18.5 17.1951 18.5 17.1971 18.5 17.1991C18.5 17.2012 18.5 17.2032 18.5 17.2052C18.5 17.2072 18.5 17.2092 18.5 17.2112C18.5 17.2132 18.5 17.2152 18.5 17.2172C18.5 17.2192 18.5 17.2211 18.5 17.2231C18.5 17.2251 18.5 17.227 18.5 17.229C18.5 17.2309 18.5 17.2329 18.5 17.2348C18.5 17.2368 18.5 17.2387 18.5 17.2407C18.5 17.2426 18.5 17.2445 18.5 17.2464C18.5 17.2483 18.5 17.2502 18.5 17.2522C18.5 17.2541 18.5 17.256 18.5 17.2578C18.5 17.2597 18.5 17.2616 18.5 17.2635C18.5 17.2654 18.5 17.2672 18.5 17.2691C18.5 17.271 18.5 17.2728 18.5 17.2747C18.5 17.2765 18.5 17.2784 18.5 17.2802C18.5 17.282 18.5 17.2838 18.5 17.2857C18.5 17.2875 18.5 17.2893 18.5 17.2911C18.5 17.2929 18.5 17.2947 18.5 17.2965C18.5 17.2983 18.5 17.3001 18.5 17.3019C18.5 17.3036 18.5 17.3054 18.5 17.3072C18.5 17.3089 18.5 17.3107 18.5 17.3125C18.5 17.3142 18.5 17.316 18.5 17.3177C18.5 17.3194 18.5 17.3212 18.5 17.3229C18.5 17.3246 18.5 17.3263 18.5 17.328C18.5 17.3297 18.5 17.3314 18.5 17.3331C18.5 17.3348 18.5 17.3365 18.5 17.3382C18.5 17.3399 18.5 17.3415 18.5 17.3432C18.5 17.3449 18.5 17.3465 18.5 17.3482C18.5 17.3498 18.5 17.3515 18.5 17.3531C18.5 17.3547 18.5 17.3564 18.5 17.358C18.5 17.3596 18.5 17.3612 18.5 17.3628C18.5 17.3644 18.5 17.366 18.5 17.3676C18.5 17.3692 18.5 17.3708 18.5 17.3724C18.5 17.374 18.5 17.3755 18.5 17.3771C18.5 17.3787 18.5 17.3802 18.5 17.3818C18.5 17.3833 18.5 17.3848 18.5 17.3864C18.5 17.3879 18.5 17.3894 18.5 17.391C18.5 17.3925 18.5 17.394 18.5 17.3955C18.5 17.397 18.5 17.3985 18.5 17.4C18.5 17.4015 18.5 17.4029 18.5 17.4044C18.5 17.4059 18.5 17.4074 18.5 17.4088C18.5 17.4103 18.5 17.4117 18.5 17.4132C18.5 17.4146 18.5 17.416 18.5 17.4175C18.5 17.4189 18.5 17.4203 18.5 17.4217C18.5 17.4231 18.5 17.4245 18.5 17.4259C18.5 17.4273 18.5 17.4287 18.5 17.4301C18.5 17.4315 18.5 17.4329 18.5 17.4342C18.5 17.4356 18.5 17.4369 18.5 17.4383C18.5 17.4396 18.5 17.441 18.5 17.4423C18.5 17.4437 18.5 17.445 18.5 17.4463C18.5 17.4476 18.5 17.4489 18.5 17.4502C18.5 17.4515 18.5 17.4528 18.5 17.4541C18.5 17.4554 18.5 17.4567 18.5 17.458C18.5 17.4592 18.5 17.4605 18.5 17.4618C18.5 17.463 18.5 17.4643 18.5 17.4655C18.5 17.4667 18.5 17.468 18.5 17.4692C18.5 17.4704 18.5 17.4716 18.5 17.4728C18.5 17.474 18.5 17.4752 18.5 17.4764C18.5 17.4776 18.5 17.4788 18.5 17.48C18.5 17.4812 18.5 17.4823 18.5 17.4835C18.5 17.4847 18.5 17.4858 18.5 17.487C18.5 17.4881 18.5 17.4892 18.5 17.4904C18.5 17.4915 18.5 17.4926 18.5 17.4937C18.5 17.4948 18.5 17.4959 18.5 17.497C18.5 17.4981 18.5 17.4992 18.5 17.5003C18.5 17.5014 18.5 17.5024 18.5 17.5035C18.5 17.5046 18.5 17.5056 18.5 17.5067C18.5 17.5077 18.5 17.5087 18.5 17.5098C18.5 17.5108 18.5 17.5118 18.5 17.5128C18.5 17.5138 18.5 17.5148 18.5 17.5158C18.5 17.5168 18.5 17.5178 18.5 17.5188C18.5 17.5198 18.5 17.5208 18.5 17.5217C18.5 17.5227 18.5 17.5236 18.5 17.5246C18.5 17.5255 18.5 17.5265 18.5 17.5274C18.5 17.5283 18.5 17.5292 18.5 17.5302C18.5 17.5311 18.5 17.532 18.5 17.5329C18.5 17.5338 18.5 17.5346 18.5 17.5355C18.5 17.5364 18.5 17.5373 18.5 17.5381C18.5 17.539 18.5 17.5398 18.5 17.5407C18.5 17.5415 18.5 17.5424 18.5 17.5432C18.5 17.544 18.5 17.5448 18.5 17.5456C18.5 17.5464 18.5 17.5473 18.5 17.548C18.5 17.5488 18.5 17.5496 18.5 17.5504C18.5 17.5512 18.5 17.5519 18.5 17.5527C18.5 17.5534 18.5 17.5542 18.5 17.5549C18.5 17.5557 18.5 17.5564 18.5 17.5571C18.5 17.5578 18.5 17.5586 18.5 17.5593C18.5 17.56 18.5 17.5607 18.5 17.5614C18.5 17.562 18.5 17.5627 18.5 17.5634C18.5 17.5641 18.5 17.5647 18.5 17.5654C18.5 17.566 18.5 17.5667 18.5 17.5673C18.5 17.5679 18.5 17.5686 18.5 17.5692C18.5 17.5698 18.5 17.5704 18.5 17.571C18.5 17.5716 18.5 17.5722 18.5 17.5728C18.5 17.5733 18.5 17.5739 18.5 17.5745C18.5 17.575 18.5 17.5756 18.5 17.5761C18.5 17.5767 18.5 17.5772 18.5 17.5777C18.5 17.5783 18.5 17.5788 18.5 17.5793C18.5 17.5798 18.5 17.5803 18.5 17.5808C18.5 17.5813 18.5 17.5818 18.5 17.5822C18.5 17.5827 18.5 17.5832 18.5 17.5836C18.5 17.5841 18.5 17.5845 18.5 17.585C18.5 17.5854 18.5 17.5858 18.5 17.5862C18.5 17.5867 18.5 17.5871 18.5 17.5875C18.5 17.5879 18.5 17.5883 18.5 17.5886C18.5 17.589 18.5 17.5894 18.5 17.5897C18.5 17.5901 18.5 17.5905 18.5 17.5908C18.5 17.5911 18.5 17.5915 18.5 17.5918C18.5 17.5921 18.5 17.5924 18.5 17.5928C18.5 17.5931 18.5 17.5934 18.5 17.5936C18.5 17.5939 18.5 17.5942 18.5 17.5945C18.5 17.5947 18.5 17.595 18.5 17.5953C18.5 17.5955 18.5 17.5957 18.5 17.596C18.5 17.5962 18.5 17.5964 18.5 17.5966C18.5 17.5968 18.5 17.5971 18.5 17.5972C18.5 17.5974 18.5 17.5976 18.5 17.5978C18.5 17.598 18.5 17.5981 18.5 17.5983C18.5 17.5984 18.5 17.5986 18.5 17.5987C18.5 17.5989 18.5 17.599 18.5 17.5991C18.5 17.5992 18.5 17.5993 18.5 17.5994C18.5 17.5995 18.5 17.5996 18.5 17.5997C18.5 17.5998 18.5 17.5998 18.5 17.5999C18.5 17.5999 18.5 17.6 18.5 17.6C18.5 17.6001 18.5 17.6001 18.5 17.6001C18.5 17.6001 18.5 17.6001 20 17.6001C21.5 17.6001 21.5 17.6001 21.5 17.6001C21.5 17.6001 21.5 17.6001 21.5 17.6C21.5 17.6 21.5 17.5999 21.5 17.5999C21.5 17.5998 21.5 17.5998 21.5 17.5997C21.5 17.5996 21.5 17.5995 21.5 17.5994C21.5 17.5993 21.5 17.5992 21.5 17.5991C21.5 17.599 21.5 17.5989 21.5 17.5987C21.5 17.5986 21.5 17.5984 21.5 17.5983C21.5 17.5981 21.5 17.598 21.5 17.5978C21.5 17.5976 21.5 17.5974 21.5 17.5972C21.5 17.5971 21.5 17.5968 21.5 17.5966C21.5 17.5964 21.5 17.5962 21.5 17.596C21.5 17.5957 21.5 17.5955 21.5 17.5953C21.5 17.595 21.5 17.5947 21.5 17.5945C21.5 17.5942 21.5 17.5939 21.5 17.5936C21.5 17.5934 21.5 17.5931 21.5 17.5928C21.5 17.5924 21.5 17.5921 21.5 17.5918C21.5 17.5915 21.5 17.5911 21.5 17.5908C21.5 17.5905 21.5 17.5901 21.5 17.5897C21.5 17.5894 21.5 17.589 21.5 17.5886C21.5 17.5883 21.5 17.5879 21.5 17.5875C21.5 17.5871 21.5 17.5867 21.5 17.5862C21.5 17.5858 21.5 17.5854 21.5 17.585C21.5 17.5845 21.5 17.5841 21.5 17.5836C21.5 17.5832 21.5 17.5827 21.5 17.5822C21.5 17.5818 21.5 17.5813 21.5 17.5808C21.5 17.5803 21.5 17.5798 21.5 17.5793C21.5 17.5788 21.5 17.5783 21.5 17.5777C21.5 17.5772 21.5 17.5767 21.5 17.5761C21.5 17.5756 21.5 17.575 21.5 17.5745C21.5 17.5739 21.5 17.5733 21.5 17.5728C21.5 17.5722 21.5 17.5716 21.5 17.571C21.5 17.5704 21.5 17.5698 21.5 17.5692C21.5 17.5686 21.5 17.5679 21.5 17.5673C21.5 17.5667 21.5 17.566 21.5 17.5654C21.5 17.5647 21.5 17.5641 21.5 17.5634C21.5 17.5627 21.5 17.562 21.5 17.5614C21.5 17.5607 21.5 17.56 21.5 17.5593C21.5 17.5586 21.5 17.5578 21.5 17.5571C21.5 17.5564 21.5 17.5557 21.5 17.5549C21.5 17.5542 21.5 17.5534 21.5 17.5527C21.5 17.5519 21.5 17.5512 21.5 17.5504C21.5 17.5496 21.5 17.5488 21.5 17.548C21.5 17.5473 21.5 17.5464 21.5 17.5456C21.5 17.5448 21.5 17.544 21.5 17.5432C21.5 17.5424 21.5 17.5415 21.5 17.5407C21.5 17.5398 21.5 17.539 21.5 17.5381C21.5 17.5373 21.5 17.5364 21.5 17.5355C21.5 17.5346 21.5 17.5338 21.5 17.5329C21.5 17.532 21.5 17.5311 21.5 17.5302C21.5 17.5292 21.5 17.5283 21.5 17.5274C21.5 17.5265 21.5 17.5255 21.5 17.5246C21.5 17.5236 21.5 17.5227 21.5 17.5217C21.5 17.5208 21.5 17.5198 21.5 17.5188C21.5 17.5178 21.5 17.5168 21.5 17.5158C21.5 17.5148 21.5 17.5138 21.5 17.5128C21.5 17.5118 21.5 17.5108 21.5 17.5098C21.5 17.5087 21.5 17.5077 21.5 17.5067C21.5 17.5056 21.5 17.5046 21.5 17.5035C21.5 17.5024 21.5 17.5014 21.5 17.5003C21.5 17.4992 21.5 17.4981 21.5 17.497C21.5 17.4959 21.5 17.4948 21.5 17.4937C21.5 17.4926 21.5 17.4915 21.5 17.4904C21.5 17.4892 21.5 17.4881 21.5 17.487C21.5 17.4858 21.5 17.4847 21.5 17.4835C21.5 17.4823 21.5 17.4812 21.5 17.48C21.5 17.4788 21.5 17.4776 21.5 17.4764C21.5 17.4752 21.5 17.474 21.5 17.4728C21.5 17.4716 21.5 17.4704 21.5 17.4692C21.5 17.468 21.5 17.4667 21.5 17.4655C21.5 17.4643 21.5 17.463 21.5 17.4618C21.5 17.4605 21.5 17.4592 21.5 17.458C21.5 17.4567 21.5 17.4554 21.5 17.4541C21.5 17.4528 21.5 17.4515 21.5 17.4502C21.5 17.4489 21.5 17.4476 21.5 17.4463C21.5 17.445 21.5 17.4437 21.5 17.4423C21.5 17.441 21.5 17.4396 21.5 17.4383C21.5 17.4369 21.5 17.4356 21.5 17.4342C21.5 17.4329 21.5 17.4315 21.5 17.4301C21.5 17.4287 21.5 17.4273 21.5 17.4259C21.5 17.4245 21.5 17.4231 21.5 17.4217C21.5 17.4203 21.5 17.4189 21.5 17.4175C21.5 17.416 21.5 17.4146 21.5 17.4132C21.5 17.4117 21.5 17.4103 21.5 17.4088C21.5 17.4074 21.5 17.4059 21.5 17.4044C21.5 17.4029 21.5 17.4015 21.5 17.4C21.5 17.3985 21.5 17.397 21.5 17.3955C21.5 17.394 21.5 17.3925 21.5 17.391C21.5 17.3894 21.5 17.3879 21.5 17.3864C21.5 17.3848 21.5 17.3833 21.5 17.3818C21.5 17.3802 21.5 17.3787 21.5 17.3771C21.5 17.3755 21.5 17.374 21.5 17.3724C21.5 17.3708 21.5 17.3692 21.5 17.3676C21.5 17.366 21.5 17.3644 21.5 17.3628C21.5 17.3612 21.5 17.3596 21.5 17.358C21.5 17.3564 21.5 17.3547 21.5 17.3531C21.5 17.3515 21.5 17.3498 21.5 17.3482C21.5 17.3465 21.5 17.3449 21.5 17.3432C21.5 17.3415 21.5 17.3399 21.5 17.3382C21.5 17.3365 21.5 17.3348 21.5 17.3331C21.5 17.3314 21.5 17.3297 21.5 17.328C21.5 17.3263 21.5 17.3246 21.5 17.3229C21.5 17.3212 21.5 17.3194 21.5 17.3177C21.5 17.316 21.5 17.3142 21.5 17.3125C21.5 17.3107 21.5 17.3089 21.5 17.3072C21.5 17.3054 21.5 17.3036 21.5 17.3019C21.5 17.3001 21.5 17.2983 21.5 17.2965C21.5 17.2947 21.5 17.2929 21.5 17.2911C21.5 17.2893 21.5 17.2875 21.5 17.2857C21.5 17.2838 21.5 17.282 21.5 17.2802C21.5 17.2784 21.5 17.2765 21.5 17.2747C21.5 17.2728 21.5 17.271 21.5 17.2691C21.5 17.2672 21.5 17.2654 21.5 17.2635C21.5 17.2616 21.5 17.2597 21.5 17.2578C21.5 17.256 21.5 17.2541 21.5 17.2522C21.5 17.2502 21.5 17.2483 21.5 17.2464C21.5 17.2445 21.5 17.2426 21.5 17.2407C21.5 17.2387 21.5 17.2368 21.5 17.2348C21.5 17.2329 21.5 17.2309 21.5 17.229C21.5 17.227 21.5 17.2251 21.5 17.2231C21.5 17.2211 21.5 17.2192 21.5 17.2172C21.5 17.2152 21.5 17.2132 21.5 17.2112C21.5 17.2092 21.5 17.2072 21.5 17.2052C21.5 17.2032 21.5 17.2012 21.5 17.1991C21.5 17.1971 21.5 17.1951 21.5 17.1931C21.5 17.191 21.5 17.189 21.5 17.1869C21.5 17.1849 21.5 17.1828 21.5 17.1808C21.5 17.1787 21.5 17.1766 21.5 17.1746C21.5 17.1725 21.5 17.1704 21.5 17.1683C21.5 17.1662 21.5 17.1641 21.5 17.162C21.5 17.1599 21.5 17.1578 21.5 17.1557C21.5 17.1536 21.5 17.1515 21.5 17.1493C21.5 17.1472 21.5 17.1451 21.5 17.1429C21.5 17.1408 21.5 17.1387 21.5 17.1365C21.5 17.1344 21.5 17.1322 21.5 17.13C21.5 17.1279 21.5 17.1257 21.5 17.1235C21.5 17.1213 21.5 17.1192 21.5 17.117C21.5 17.1148 21.5 17.1126 21.5 17.1104C21.5 17.1082 21.5 17.106 21.5 17.1038C21.5 17.1016 21.5 17.0993 21.5 17.0971C21.5 17.0949 21.5 17.0926 21.5 17.0904C21.5 17.0882 21.5 17.0859 21.5 17.0837C21.5 17.0814 21.5 17.0792 21.5 17.0769C21.5 17.0746 21.5 17.0724 21.5 17.0701C21.5 17.0678 21.5 17.0655 21.5 17.0633C21.5 17.061 21.5 17.0587 21.5 17.0564C21.5 17.0541 21.5 17.0518 21.5 17.0495C21.5 17.0472 21.5 17.0448 21.5 17.0425C21.5 17.0402 21.5 17.0379 21.5 17.0355C21.5 17.0332 21.5 17.0309 21.5 17.0285C21.5 17.0262 21.5 17.0238 21.5 17.0215C21.5 17.0191 21.5 17.0167 21.5 17.0144C21.5 17.012 21.5 17.0096 21.5 17.0072C21.5 17.0049 21.5 17.0025 21.5 17.0001C21.5 16.9977 21.5 16.9953 21.5 16.9929C21.5 16.9905 21.5 16.9881 21.5 16.9857C21.5 16.9832 21.5 16.9808 21.5 16.9784C21.5 16.976 21.5 16.9735 21.5 16.9711C21.5 16.9686 21.5 16.9662 21.5 16.9638C21.5 16.9613 21.5 16.9588 21.5 16.9564C21.5 16.9539 21.5 16.9515 21.5 16.949C21.5 16.9465 21.5 16.944 21.5 16.9416C21.5 16.9391 21.5 16.9366 21.5 16.9341C21.5 16.9316 21.5 16.9291 21.5 16.9266C21.5 16.9241 21.5 16.9216 21.5 16.9191C21.5 16.9165 21.5 16.914 21.5 16.9115C21.5 16.909 21.5 16.9064 21.5 16.9039C21.5 16.9013 21.5 16.8988 21.5 16.8963C21.5 16.8937 21.5 16.8912 21.5 16.8886C21.5 16.886 21.5 16.8835 21.5 16.8809C21.5 16.8783 21.5 16.8757 21.5 16.8732C21.5 16.8706 21.5 16.868 21.5 16.8654C21.5 16.8628 21.5 16.8602 21.5 16.8576C21.5 16.855 21.5 16.8524 21.5 16.8498C21.5 16.8472 21.5 16.8446 21.5 16.8419C21.5 16.8393 21.5 16.8367 21.5 16.834C21.5 16.8314 21.5 16.8288 21.5 16.8261C21.5 16.8235 21.5 16.8208 21.5 16.8182C21.5 16.8155 21.5 16.8129 21.5 16.8102C21.5 16.8075 21.5 16.8049 21.5 16.8022C21.5 16.7995 21.5 16.7968 21.5 16.7941C21.5 16.7915 21.5 16.7888 21.5 16.7861C21.5 16.7834 21.5 16.7807 21.5 16.778C21.5 16.7753 21.5 16.7726 21.5 16.7698C21.5 16.7671 21.5 16.7644 21.5 16.7617C21.5 16.759 21.5 16.7562 21.5 16.7535C21.5 16.7508 21.5 16.748 21.5 16.7453C21.5 16.7425 21.5 16.7398 21.5 16.737C21.5 16.7343 21.5 16.7315 21.5 16.7287C21.5 16.726 21.5 16.7232 21.5 16.7204C21.5 16.7176 21.5 16.7149 21.5 16.7121C21.5 16.7093 21.5 16.7065 21.5 16.7037C21.5 16.7009 21.5 16.6981 21.5 16.6953C21.5 16.6925 21.5 16.6897 21.5 16.6869C21.5 16.6841 21.5 16.6813 21.5 16.6784C21.5 16.6756 21.5 16.6728 21.5 16.67C21.5 16.6671 21.5 16.6643 21.5 16.6614C21.5 16.6586 21.5 16.6558 21.5 16.6529C21.5 16.6501 21.5 16.6472 21.5 16.6443C21.5 16.6415 21.5 16.6386 21.5 16.6358C21.5 16.6329 21.5 16.63 21.5 16.6271C21.5 16.6243 21.5 16.6214 21.5 16.6185C21.5 16.6156 21.5 16.6127 21.5 16.6098C21.5 16.6069 21.5 16.604 21.5 16.6011C21.5 16.5982 21.5 16.5953 21.5 16.5924C21.5 16.5895 21.5 16.5865 21.5 16.5836C21.5 16.5807 21.5 16.5778 21.5 16.5748C21.5 16.5719 21.5 16.569 21.5 16.566C21.5 16.5631 21.5 16.5601 21.5 16.5572C21.5 16.5542 21.5 16.5513 21.5 16.5483C21.5 16.5454 21.5 16.5424 21.5 16.5394C21.5 16.5365 21.5 16.5335 21.5 16.5305C21.5 16.5276 21.5 16.5246 21.5 16.5216C21.5 16.5186 21.5 16.5156 21.5 16.5126C21.5 16.5096 21.5 16.5066 21.5 16.5036C21.5 16.5006 21.5 16.4976 21.5 16.4946C21.5 16.4916 21.5 16.4886 21.5 16.4856C21.5 16.4826 21.5 16.4796 21.5 16.4765C21.5 16.4735 21.5 16.4705 21.5 16.4674C21.5 16.4644 21.5 16.4614 21.5 16.4583C21.5 16.4553 21.5 16.4522 21.5 16.4492C21.5 16.4461 21.5 16.4431 21.5 16.44C21.5 16.437 21.5 16.4339 21.5 16.4308C21.5 16.4278 21.5 16.4247 21.5 16.4216C21.5 16.4186 21.5 16.4155 21.5 16.4124C21.5 16.4093 21.5 16.4062 21.5 16.4031C21.5 16.4 21.5 16.397 21.5 16.3939C21.5 16.3908 21.5 16.3877 21.5 16.3846C21.5 16.3814 21.5 16.3783 21.5 16.3752C21.5 16.3721 21.5 16.369 21.5 16.3659C21.5 16.3628 21.5 16.3596 21.5 16.3565C21.5 16.3534 21.5 16.3502 21.5 16.3471C21.5 16.344 21.5 16.3408 21.5 16.3377C21.5 16.3345 21.5 16.3314 21.5 16.3282C21.5 16.3251 21.5 16.3219 21.5 16.3188C21.5 16.3156 21.5 16.3125 21.5 16.3093C21.5 16.3061 21.5 16.303 21.5 16.2998C21.5 16.2966 21.5 16.2934 21.5 16.2903C21.5 16.2871 21.5 16.2839 21.5 16.2807C21.5 16.2775 21.5 16.2743 21.5 16.2711C21.5 16.268 21.5 16.2648 21.5 16.2616C21.5 16.2584 21.5 16.2551 21.5 16.2519C21.5 16.2487 21.5 16.2455 21.5 16.2423C21.5 16.2391 21.5 16.2359 21.5 16.2327C21.5 16.2294 21.5 16.2262 21.5 16.223C21.5 16.2197 21.5 16.2165 21.5 16.2133C21.5 16.21 21.5 16.2068 21.5 16.2036C21.5 16.2003 21.5 16.1971 21.5 16.1938C21.5 16.1906 21.5 16.1873 21.5 16.1841C21.5 16.1808 21.5 16.1776 21.5 16.1743C21.5 16.171 21.5 16.1678 21.5 16.1645C21.5 16.1612 21.5 16.158 21.5 16.1547C21.5 16.1514 21.5 16.1481 21.5 16.1448C21.5 16.1416 21.5 16.1383 21.5 16.135C21.5 16.1317 21.5 16.1284 21.5 16.1251C21.5 16.1218 21.5 16.1185 21.5 16.1152C21.5 16.1119 21.5 16.1086 21.5 16.1053C21.5 16.102 21.5 16.0987 21.5 16.0954C21.5 16.0921 21.5 16.0888 21.5 16.0854C21.5 16.0821 21.5 16.0788 21.5 16.0755C21.5 16.0721 21.5 16.0688 21.5 16.0655C21.5 16.0621 21.5 16.0588 21.5 16.0555C21.5 16.0521 21.5 16.0488 21.5 16.0455C21.5 16.0421 21.5 16.0388 21.5 16.0354C21.5 16.0321 21.5 16.0287 21.5 16.0254C21.5 16.022 21.5 16.0186 21.5 16.0153C21.5 16.0119 21.5 16.0086 21.5 16.0052C21.5 16.0018 21.5 15.9985 21.5 15.9951C21.5 15.9917 21.5 15.9883 21.5 15.985C21.5 15.9816 21.5 15.9782 21.5 15.9748C21.5 15.9714 21.5 15.9681 21.5 15.9647C21.5 15.9613 21.5 15.9579 21.5 15.9545C21.5 15.9511 21.5 15.9477 21.5 15.9443C21.5 15.9409 21.5 15.9375 21.5 15.9341C21.5 15.9307 21.5 15.9273 21.5 15.9239C21.5 15.9205 21.5 15.9171 21.5 15.9136C21.5 15.9102 21.5 15.9068 21.5 15.9034C21.5 15.9 21.5 15.8965 21.5 15.8931C21.5 15.8897 21.5 15.8863 21.5 15.8828C21.5 15.8794 21.5 15.876 21.5 15.8725C21.5 15.8691 21.5 15.8657 21.5 15.8622C21.5 15.8588 21.5 15.8553 21.5 15.8519C21.5 15.8484 21.5 15.845 21.5 15.8415C21.5 15.8381 21.5 15.8346 21.5 15.8312C21.5 15.8277 21.5 15.8243 21.5 15.8208C21.5 15.8173 21.5 15.8139 21.5 15.8104C21.5 15.8069 21.5 15.8035 21.5 15.8C21.5 15.7965 21.5 15.7931 21.5 15.7896C21.5 15.7861 21.5 15.7826 21.5 15.7792C21.5 15.7757 21.5 15.7722 21.5 15.7687C21.5 15.7652 21.5 15.7618 21.5 15.7583C21.5 15.7548 21.5 15.7513 21.5 15.7478C21.5 15.7443 21.5 15.7408 21.5 15.7373C21.5 15.7338 21.5 15.7303 21.5 15.7268C21.5 15.7233 21.5 15.7198 21.5 15.7163C21.5 15.7128 21.5 15.7093 21.5 15.7058C21.5 15.7023 21.5 15.6988 21.5 15.6952C21.5 15.6917 21.5 15.6882 21.5 15.6847C21.5 15.6812 21.5 15.6777 21.5 15.6741C21.5 15.6706 21.5 15.6671 21.5 15.6636C21.5 15.66 21.5 15.6565 21.5 15.653C21.5 15.6495 21.5 15.6459 21.5 15.6424C21.5 15.6389 21.5 15.6353 21.5 15.6318C21.5 15.6282 21.5 15.6247 21.5 15.6212C21.5 15.6176 21.5 15.6141 21.5 15.6105C21.5 15.607 21.5 15.6034 21.5 15.5999C21.5 15.5963 21.5 15.5928 21.5 15.5892C21.5 15.5857 21.5 15.5821 21.5 15.5786C21.5 15.575 21.5 15.5715 21.5 15.5679C21.5 15.5644 21.5 15.5608 21.5 15.5572C21.5 15.5537 21.5 15.5501 21.5 15.5465C21.5 15.543 21.5 15.5394 21.5 15.5358C21.5 15.5323 21.5 15.5287 21.5 15.5251C21.5 15.5215 21.5 15.518 21.5 15.5144C21.5 15.5108 21.5 15.5072 21.5 15.5037C21.5 15.5001 21.5 15.4965 21.5 15.4929C21.5 15.4893 21.5 15.4857 21.5 15.4822C21.5 15.4786 21.5 15.475 21.5 15.4714C21.5 15.4678 21.5 15.4642 21.5 15.4606C21.5 15.457 21.5 15.4534 21.5 15.4498C21.5 15.4462 21.5 15.4427 21.5 15.4391C21.5 15.4355 21.5 15.4319 21.5 15.4283C21.5 15.4247 21.5 15.4211 21.5 15.4175C21.5 15.4138 21.5 15.4102 21.5 15.4066C21.5 15.403 21.5 15.3994 21.5 15.3958C21.5 15.3922 21.5 15.3886 21.5 15.385C21.5 15.3814 21.5 15.3778 21.5 15.3741C21.5 15.3705 21.5 15.3669 21.5 15.3633C21.5 15.3597 21.5 15.3561 21.5 15.3524C21.5 15.3488 21.5 15.3452 21.5 15.3416C21.5 15.338 21.5 15.3343 21.5 15.3307C21.5 15.3271 21.5 15.3235 21.5 15.3198C21.5 15.3162 21.5 15.3126 21.5 15.309C21.5 15.3053 21.5 15.3017 21.5 15.2981C21.5 15.2944 21.5 15.2908 21.5 15.2872C21.5 15.2835 21.5 15.2799 21.5 15.2763C21.5 15.2726 21.5 15.269 21.5 15.2654C21.5 15.2617 21.5 15.2581 21.5 15.2544C21.5 15.2508 21.5 15.2472 21.5 15.2435C21.5 15.2399 21.5 15.2362 21.5 15.2326C21.5 15.2289 21.5 15.2253 21.5 15.2217C21.5 15.218 21.5 15.2144 21.5 15.2107C21.5 15.2071 21.5 15.2034 21.5 15.1998C21.5 15.1961 21.5 15.1925 21.5 15.1888C21.5 15.1852 21.5 15.1815 21.5 15.1779C21.5 15.1742 21.5 15.1706 21.5 15.1669C21.5 15.1633 21.5 15.1596 21.5 15.156C21.5 15.1523 21.5 15.1486 21.5 15.145C21.5 15.1413 21.5 15.1377 21.5 15.134C21.5 15.1304 21.5 15.1267 21.5 15.123C21.5 15.1194 21.5 15.1157 21.5 15.1121C21.5 15.1084 21.5 15.1047 21.5 15.1011C21.5 15.0974 21.5 15.0937 21.5 15.0901C21.5 15.0864 21.5 15.0827 21.5 15.0791C21.5 15.0754 21.5 15.0718 21.5 15.0681C21.5 15.0644 21.5 15.0608 21.5 15.0571C21.5 15.0534 21.5 15.0498 21.5 15.0461C21.5 15.0424 21.5 15.0387 21.5 15.0351C21.5 15.0314 21.5 15.0277 21.5 15.0241C21.5 15.0204 21.5 15.0167 21.5 15.0131C21.5 15.0094 21.5 15.0057 21.5 15.002C21.5 14.9984 21.5 14.9947 21.5 14.991C21.5 14.9874 21.5 14.9837 21.5 14.98C21.5 14.9763 21.5 14.9727 21.5 14.969C21.5 14.9653 21.5 14.9616 21.5 14.958C21.5 14.9543 21.5 14.9506 21.5 14.9469C21.5 14.9433 21.5 14.9396 21.5 14.9359C21.5 14.9322 21.5 14.9286 21.5 14.9249C21.5 14.9212 21.5 14.9175 21.5 14.9139C21.5 14.9102 21.5 14.9065 21.5 14.9028C21.5 14.8991 21.5 14.8955 21.5 14.8918C21.5 14.8881 21.5 14.8844 21.5 14.8808C21.5 14.8771 21.5 14.8734 21.5 14.8697C21.5 14.866 21.5 14.8624 21.5 14.8587C21.5 14.855 21.5 14.8513 21.5 14.8477C21.5 14.844 21.5 14.8403 21.5 14.8366C21.5 14.8329 21.5 14.8293 21.5 14.8256C21.5 14.8219 21.5 14.8182 21.5 14.8146C21.5 14.8109 21.5 14.8072 21.5 14.8035C21.5 14.7998 21.5 14.7962 21.5 14.7925C21.5 14.7888 21.5 14.7851 21.5 14.7815C21.5 14.7778 21.5 14.7741 21.5 14.7704C21.5 14.7667 21.5 14.7631 21.5 14.7594C21.5 14.7557 21.5 14.752 21.5 14.7484C21.5 14.7447 21.5 14.741 21.5 14.7373C21.5 14.7337 21.5 14.73 21.5 14.7263C21.5 14.7226 21.5 14.7189 21.5 14.7153C21.5 14.7116 21.5 14.7079 21.5 14.7042C21.5 14.7006 21.5 14.6969 21.5 14.6932C21.5 14.6895 21.5 14.6859 21.5 14.6822C21.5 14.6785 21.5 14.6749 21.5 14.6712C21.5 14.6675 21.5 14.6638 21.5 14.6602C21.5 14.6565 21.5 14.6528 21.5 14.6491C21.5 14.6455 21.5 14.6418 21.5 14.6381C21.5 14.6345 21.5 14.6308 21.5 14.6271C21.5 14.6235 21.5 14.6198 21.5 14.6161C21.5 14.6124 21.5 14.6088 21.5 14.6051C21.5 14.6014 21.5 14.5978 21.5 14.5941C21.5 14.5904 21.5 14.5868 21.5 14.5831C21.5 14.5794 21.5 14.5758 21.5 14.5721C21.5 14.5685 21.5 14.5648 21.5 14.5611C21.5 14.5575 21.5 14.5538 21.5 14.5501C21.5 14.5465 21.5 14.5428 21.5 14.5392C21.5 14.5355 21.5 14.5318 21.5 14.5282C21.5 14.5245 21.5 14.5209 21.5 14.5172C21.5 14.5136 21.5 14.5099 21.5 14.5062C21.5 14.5026 21.5 14.4989 21.5 14.4953C21.5 14.4916 21.5 14.488 21.5 14.4843C21.5 14.4807 21.5 14.477 21.5 14.4734C21.5 14.4697 21.5 14.4661 21.5 14.4624C21.5 14.4588 21.5 14.4551 21.5 14.4515C21.5 14.4478 21.5 14.4442 21.5 14.4405C21.5 14.4369 21.5 14.4332 21.5 14.4296C21.5 14.4259 21.5 14.4223 21.5 14.4187C21.5 14.415 21.5 14.4114 21.5 14.4077C21.5 14.4041 21.5 14.4005 21.5 14.3968C21.5 14.3932 21.5 14.3895 21.5 14.3859C21.5 14.3823 21.5 14.3786 21.5 14.375C21.5 14.3714 21.5 14.3677 21.5 14.3641C21.5 14.3605 21.5 14.3568 21.5 14.3532C21.5 14.3496 21.5 14.3459 21.5 14.3423C21.5 14.3387 21.5 14.3351 21.5 14.3314C21.5 14.3278 21.5 14.3242 21.5 14.3206C21.5 14.3169 21.5 14.3133 21.5 14.3097C21.5 14.3061 21.5 14.3025 21.5 14.2989C21.5 14.2952 21.5 14.2916 21.5 14.288C21.5 14.2844 21.5 14.2808 21.5 14.2772C21.5 14.2735 21.5 14.2699 21.5 14.2663C21.5 14.2627 21.5 14.2591 21.5 14.2555C21.5 14.2519 21.5 14.2483 21.5 14.2447C21.5 14.2411 21.5 14.2375 21.5 14.2339C21.5 14.2303 21.5 14.2267 21.5 14.2231C21.5 14.2195 21.5 14.2159 21.5 14.2123C21.5 14.2087 21.5 14.2051 21.5 14.2015C21.5 14.1979 21.5 14.1943 21.5 14.1907C21.5 14.1871 21.5 14.1835 21.5 14.18C21.5 14.1764 21.5 14.1728 21.5 14.1692C21.5 14.1656 21.5 14.162 21.5 14.1585C21.5 14.1549 21.5 14.1513 21.5 14.1477C21.5 14.1441 21.5 14.1406 21.5 14.137C21.5 14.1334 21.5 14.1298 21.5 14.1263C21.5 14.1227 21.5 14.1191 21.5 14.1156C21.5 14.112 21.5 14.1084 21.5 14.1049C21.5 14.1013 21.5 14.0977 21.5 14.0942C21.5 14.0906 21.5 14.0871 21.5 14.0835C21.5 14.0799 21.5 14.0764 21.5 14.0728C21.5 14.0693 21.5 14.0657 21.5 14.0622C21.5 14.0586 21.5 14.0551 21.5 14.0515C21.5 14.048 21.5 14.0444 21.5 14.0409C21.5 14.0374 21.5 14.0338 21.5 14.0303C21.5 14.0267 21.5 14.0232 21.5 14.0197C21.5 14.0161 21.5 14.0126 21.5 14.0091C21.5 14.0055 21.5 14.002 21.5 13.9985C21.5 13.995 21.5 13.9914 21.5 13.9879C21.5 13.9844 21.5 13.9809 21.5 13.9773C21.5 13.9738 21.5 13.9703 21.5 13.9668C21.5 13.9633 21.5 13.9598 21.5 13.9562C21.5 13.9527 21.5 13.9492 21.5 13.9457C21.5 13.9422 21.5 13.9387 21.5 13.9352C21.5 13.9317 21.5 13.9282 21.5 13.9247C21.5 13.9212 21.5 13.9177 21.5 13.9142C21.5 13.9107 21.5 13.9072 21.5 13.9037C21.5 13.9003 21.5 13.8968 21.5 13.8933C21.5 13.8898 21.5 13.8863 21.5 13.8828C21.5 13.8794 21.5 13.8759 21.5 13.8724C21.5 13.8689 21.5 13.8654 21.5 13.862C21.5 13.8585 21.5 13.855 21.5 13.8516C21.5 13.8481 21.5 13.8446 21.5 13.8412C21.5 13.8377 21.5 13.8343 21.5 13.8308C21.5 13.8273 21.5 13.8239 21.5 13.8204C21.5 13.817 21.5 13.8135 21.5 13.8101C21.5 13.8066 21.5 13.8032 21.5 13.7997C21.5 13.7963 21.5 13.7929 21.5 13.7894C21.5 13.786 21.5 13.7826 21.5 13.7791C21.5 13.7757 21.5 13.7723 21.5 13.7688C21.5 13.7654 21.5 13.762 21.5 13.7586C21.5 13.7551 21.5 13.7517 21.5 13.7483C21.5 13.7449 21.5 13.7415 21.5 13.7381C21.5 13.7346 21.5 13.7312 21.5 13.7278C21.5 13.7244 21.5 13.721 21.5 13.7176C21.5 13.7142 21.5 13.7108 21.5 13.7074C21.5 13.704 21.5 13.7006 21.5 13.6972C21.5 13.6938 21.5 13.6905 21.5 13.6871C21.5 13.6837 21.5 13.6803 21.5 13.6769C21.5 13.6735 21.5 13.6702 21.5 13.6668C21.5 13.6634 21.5 13.66 21.5 13.6567C21.5 13.6533 21.5 13.6499 21.5 13.6466C21.5 13.6432 21.5 13.6399 21.5 13.6365C21.5 13.6331 21.5 13.6298 21.5 13.6264C21.5 13.6231 21.5 13.6197 21.5 13.6164C21.5 13.6131 21.5 13.6097 21.5 13.6064C21.5 13.603 21.5 13.5997 21.5 13.5964C21.5 13.593 21.5 13.5897 21.5 13.5864C21.5 13.583 21.5 13.5797 21.5 13.5764C21.5 13.5731 21.5 13.5698 21.5 13.5664C21.5 13.5631 21.5 13.5598 21.5 13.5565C21.5 13.5532 21.5 13.5499 21.5 13.5466C21.5 13.5433 21.5 13.54 21.5 13.5367C21.5 13.5334 21.5 13.5301 21.5 13.5268C21.5 13.5235 21.5 13.5202 21.5 13.5169C21.5 13.5137 21.5 13.5104 21.5 13.5071C21.5 13.5038 21.5 13.5005 21.5 13.4973C21.5 13.494 21.5 13.4907 21.5 13.4875C21.5 13.4842 21.5 13.4809 21.5 13.4777C21.5 13.4744 21.5 13.4712 21.5 13.4679C21.5 13.4647 21.5 13.4614 21.5 13.4582C21.5 13.4549 21.5 13.4517 21.5 13.4485C21.5 13.4452 21.5 13.442 21.5 13.4388C21.5 13.4355 21.5 13.4323 21.5 13.4291C21.5 13.4258 21.5 13.4226 21.5 13.4194C21.5 13.4162 21.5 13.413 21.5 13.4098C21.5 13.4066 21.5 13.4034 21.5 13.4001H18.5ZM15.3334 32.3001H20V29.3001H15.3334V32.3001ZM20 32.3001H23.3334V29.3001H20V32.3001ZM18.5 30.8001C18.5 30.8034 18.5 30.8066 18.5 30.8097C18.5 30.8129 18.5 30.8161 18.5 30.8193C18.5 30.8225 18.5 30.8257 18.5 30.8289C18.5 30.8321 18.5 30.8353 18.5 30.8385C18.5 30.8416 18.5 30.8448 18.5 30.848C18.5 30.8512 18.5 30.8543 18.5 30.8575C18.5 30.8607 18.5 30.8639 18.5 30.867C18.5 30.8702 18.5 30.8733 18.5 30.8765C18.5 30.8797 18.5 30.8828 18.5 30.886C18.5 30.8891 18.5 30.8923 18.5 30.8954C18.5 30.8986 18.5 30.9017 18.5 30.9049C18.5 30.908 18.5 30.9112 18.5 30.9143C18.5 30.9174 18.5 30.9206 18.5 30.9237C18.5 30.9268 18.5 30.93 18.5 30.9331C18.5 30.9362 18.5 30.9394 18.5 30.9425C18.5 30.9456 18.5 30.9487 18.5 30.9518C18.5 30.955 18.5 30.9581 18.5 30.9612C18.5 30.9643 18.5 30.9674 18.5 30.9705C18.5 30.9736 18.5 30.9767 18.5 30.9798C18.5 30.9829 18.5 30.986 18.5 30.9891C18.5 30.9922 18.5 30.9953 18.5 30.9984C18.5 31.0015 18.5 31.0046 18.5 31.0077C18.5 31.0108 18.5 31.0139 18.5 31.017C18.5 31.02 18.5 31.0231 18.5 31.0262C18.5 31.0293 18.5 31.0324 18.5 31.0354C18.5 31.0385 18.5 31.0416 18.5 31.0446C18.5 31.0477 18.5 31.0508 18.5 31.0538C18.5 31.0569 18.5 31.06 18.5 31.063C18.5 31.0661 18.5 31.0691 18.5 31.0722C18.5 31.0752 18.5 31.0783 18.5 31.0813C18.5 31.0844 18.5 31.0874 18.5 31.0905C18.5 31.0935 18.5 31.0966 18.5 31.0996C18.5 31.1026 18.5 31.1057 18.5 31.1087C18.5 31.1117 18.5 31.1148 18.5 31.1178C18.5 31.1208 18.5 31.1239 18.5 31.1269C18.5 31.1299 18.5 31.1329 18.5 31.1359C18.5 31.139 18.5 31.142 18.5 31.145C18.5 31.148 18.5 31.151 18.5 31.154C18.5 31.157 18.5 31.16 18.5 31.1631C18.5 31.1661 18.5 31.1691 18.5 31.1721C18.5 31.1751 18.5 31.1781 18.5 31.1811C18.5 31.1841 18.5 31.187 18.5 31.19C18.5 31.193 18.5 31.196 18.5 31.199C18.5 31.202 18.5 31.205 18.5 31.208C18.5 31.2109 18.5 31.2139 18.5 31.2169C18.5 31.2199 18.5 31.2229 18.5 31.2258C18.5 31.2288 18.5 31.2318 18.5 31.2347C18.5 31.2377 18.5 31.2407 18.5 31.2436C18.5 31.2466 18.5 31.2496 18.5 31.2525C18.5 31.2555 18.5 31.2584 18.5 31.2614C18.5 31.2644 18.5 31.2673 18.5 31.2703C18.5 31.2732 18.5 31.2762 18.5 31.2791C18.5 31.2821 18.5 31.285 18.5 31.2879C18.5 31.2909 18.5 31.2938 18.5 31.2968C18.5 31.2997 18.5 31.3026 18.5 31.3056C18.5 31.3085 18.5 31.3114 18.5 31.3144C18.5 31.3173 18.5 31.3202 18.5 31.3231C18.5 31.3261 18.5 31.329 18.5 31.3319C18.5 31.3348 18.5 31.3378 18.5 31.3407C18.5 31.3436 18.5 31.3465 18.5 31.3494C18.5 31.3523 18.5 31.3552 18.5 31.3581C18.5 31.3611 18.5 31.364 18.5 31.3669C18.5 31.3698 18.5 31.3727 18.5 31.3756C18.5 31.3785 18.5 31.3814 18.5 31.3843C18.5 31.3872 18.5 31.39 18.5 31.3929C18.5 31.3958 18.5 31.3987 18.5 31.4016C18.5 31.4045 18.5 31.4074 18.5 31.4103C18.5 31.4131 18.5 31.416 18.5 31.4189C18.5 31.4218 18.5 31.4247 18.5 31.4275C18.5 31.4304 18.5 31.4333 18.5 31.4362C18.5 31.439 18.5 31.4419 18.5 31.4448C18.5 31.4476 18.5 31.4505 18.5 31.4534C18.5 31.4562 18.5 31.4591 18.5 31.4619C18.5 31.4648 18.5 31.4677 18.5 31.4705C18.5 31.4734 18.5 31.4762 18.5 31.4791C18.5 31.4819 18.5 31.4848 18.5 31.4876C18.5 31.4905 18.5 31.4933 18.5 31.4962C18.5 31.499 18.5 31.5019 18.5 31.5047C18.5 31.5075 18.5 31.5104 18.5 31.5132C18.5 31.516 18.5 31.5189 18.5 31.5217C18.5 31.5245 18.5 31.5274 18.5 31.5302C18.5 31.533 18.5 31.5359 18.5 31.5387C18.5 31.5415 18.5 31.5443 18.5 31.5472C18.5 31.55 18.5 31.5528 18.5 31.5556C18.5 31.5584 18.5 31.5612 18.5 31.5641C18.5 31.5669 18.5 31.5697 18.5 31.5725C18.5 31.5753 18.5 31.5781 18.5 31.5809C18.5 31.5837 18.5 31.5865 18.5 31.5893C18.5 31.5921 18.5 31.5949 18.5 31.5977C18.5 31.6005 18.5 31.6033 18.5 31.6061C18.5 31.6089 18.5 31.6117 18.5 31.6145C18.5 31.6173 18.5 31.6201 18.5 31.6229C18.5 31.6257 18.5 31.6285 18.5 31.6312C18.5 31.634 18.5 31.6368 18.5 31.6396C18.5 31.6424 18.5 31.6452 18.5 31.6479C18.5 31.6507 18.5 31.6535 18.5 31.6563C18.5 31.659 18.5 31.6618 18.5 31.6646C18.5 31.6673 18.5 31.6701 18.5 31.6729C18.5 31.6757 18.5 31.6784 18.5 31.6812C18.5 31.684 18.5 31.6867 18.5 31.6895C18.5 31.6922 18.5 31.695 18.5 31.6978C18.5 31.7005 18.5 31.7033 18.5 31.706C18.5 31.7088 18.5 31.7115 18.5 31.7143C18.5 31.717 18.5 31.7198 18.5 31.7225C18.5 31.7253 18.5 31.728 18.5 31.7308C18.5 31.7335 18.5 31.7363 18.5 31.739C18.5 31.7417 18.5 31.7445 18.5 31.7472C18.5 31.75 18.5 31.7527 18.5 31.7554C18.5 31.7582 18.5 31.7609 18.5 31.7636C18.5 31.7664 18.5 31.7691 18.5 31.7718C18.5 31.7745 18.5 31.7773 18.5 31.78C18.5 31.7827 18.5 31.7854 18.5 31.7882C18.5 31.7909 18.5 31.7936 18.5 31.7963C18.5 31.7991 18.5 31.8018 18.5 31.8045C18.5 31.8072 18.5 31.8099 18.5 31.8126C18.5 31.8153 18.5 31.8181 18.5 31.8208C18.5 31.8235 18.5 31.8262 18.5 31.8289C18.5 31.8316 18.5 31.8343 18.5 31.837C18.5 31.8397 18.5 31.8424 18.5 31.8451C18.5 31.8478 18.5 31.8505 18.5 31.8532C18.5 31.8559 18.5 31.8586 18.5 31.8613C18.5 31.864 18.5 31.8667 18.5 31.8694C18.5 31.8721 18.5 31.8748 18.5 31.8775C18.5 31.8802 18.5 31.8828 18.5 31.8855C18.5 31.8882 18.5 31.8909 18.5 31.8936C18.5 31.8963 18.5 31.899 18.5 31.9016C18.5 31.9043 18.5 31.907 18.5 31.9097C18.5 31.9124 18.5 31.915 18.5 31.9177C18.5 31.9204 18.5 31.9231 18.5 31.9257C18.5 31.9284 18.5 31.9311 18.5 31.9337C18.5 31.9364 18.5 31.9391 18.5 31.9417C18.5 31.9444 18.5 31.9471 18.5 31.9497C18.5 31.9524 18.5 31.9551 18.5 31.9577C18.5 31.9604 18.5 31.9631 18.5 31.9657C18.5 31.9684 18.5 31.971 18.5 31.9737C18.5 31.9764 18.5 31.979 18.5 31.9817C18.5 31.9843 18.5 31.987 18.5 31.9896C18.5 31.9923 18.5 31.9949 18.5 31.9976C18.5 32.0002 18.5 32.0029 18.5 32.0055C18.5 32.0082 18.5 32.0108 18.5 32.0135C18.5 32.0161 18.5 32.0187 18.5 32.0214C18.5 32.024 18.5 32.0267 18.5 32.0293C18.5 32.0319 18.5 32.0346 18.5 32.0372C18.5 32.0399 18.5 32.0425 18.5 32.0451C18.5 32.0478 18.5 32.0504 18.5 32.053C18.5 32.0557 18.5 32.0583 18.5 32.0609C18.5 32.0635 18.5 32.0662 18.5 32.0688C18.5 32.0714 18.5 32.0741 18.5 32.0767C18.5 32.0793 18.5 32.0819 18.5 32.0846C18.5 32.0872 18.5 32.0898 18.5 32.0924C18.5 32.095 18.5 32.0977 18.5 32.1003C18.5 32.1029 18.5 32.1055 18.5 32.1081C18.5 32.1107 18.5 32.1134 18.5 32.116C18.5 32.1186 18.5 32.1212 18.5 32.1238C18.5 32.1264 18.5 32.129 18.5 32.1316C18.5 32.1343 18.5 32.1369 18.5 32.1395C18.5 32.1421 18.5 32.1447 18.5 32.1473C18.5 32.1499 18.5 32.1525 18.5 32.1551C18.5 32.1577 18.5 32.1603 18.5 32.1629C18.5 32.1655 18.5 32.1681 18.5 32.1707C18.5 32.1733 18.5 32.1759 18.5 32.1785C18.5 32.1811 18.5 32.1837 18.5 32.1863C18.5 32.1889 18.5 32.1915 18.5 32.1941C18.5 32.1967 18.5 32.1992 18.5 32.2018C18.5 32.2044 18.5 32.207 18.5 32.2096C18.5 32.2122 18.5 32.2148 18.5 32.2174C18.5 32.22 18.5 32.2225 18.5 32.2251C18.5 32.2277 18.5 32.2303 18.5 32.2329C18.5 32.2355 18.5 32.238 18.5 32.2406C18.5 32.2432 18.5 32.2458 18.5 32.2484C18.5 32.2509 18.5 32.2535 18.5 32.2561C18.5 32.2587 18.5 32.2613 18.5 32.2638C18.5 32.2664 18.5 32.269 18.5 32.2716C18.5 32.2741 18.5 32.2767 18.5 32.2793C18.5 32.2818 18.5 32.2844 18.5 32.287C18.5 32.2896 18.5 32.2921 18.5 32.2947C18.5 32.2973 18.5 32.2998 18.5 32.3024C18.5 32.305 18.5 32.3075 18.5 32.3101C18.5 32.3127 18.5 32.3152 18.5 32.3178C18.5 32.3204 18.5 32.3229 18.5 32.3255C18.5 32.328 18.5 32.3306 18.5 32.3332C18.5 32.3357 18.5 32.3383 18.5 32.3408C18.5 32.3434 18.5 32.346 18.5 32.3485C18.5 32.3511 18.5 32.3536 18.5 32.3562C18.5 32.3587 18.5 32.3613 18.5 32.3638C18.5 32.3664 18.5 32.369 18.5 32.3715C18.5 32.3741 18.5 32.3766 18.5 32.3792C18.5 32.3817 18.5 32.3843 18.5 32.3868C18.5 32.3894 18.5 32.3919 18.5 32.3945C18.5 32.397 18.5 32.3996 18.5 32.4021C18.5 32.4046 18.5 32.4072 18.5 32.4097C18.5 32.4123 18.5 32.4148 18.5 32.4174C18.5 32.4199 18.5 32.4225 18.5 32.425C18.5 32.4275 18.5 32.4301 18.5 32.4326C18.5 32.4352 18.5 32.4377 18.5 32.4402C18.5 32.4428 18.5 32.4453 18.5 32.4479C18.5 32.4504 18.5 32.4529 18.5 32.4555C18.5 32.458 18.5 32.4606 18.5 32.4631C18.5 32.4656 18.5 32.4682 18.5 32.4707C18.5 32.4732 18.5 32.4758 18.5 32.4783C18.5 32.4808 18.5 32.4834 18.5 32.4859C18.5 32.4884 18.5 32.491 18.5 32.4935C18.5 32.496 18.5 32.4986 18.5 32.5011C18.5 32.5036 18.5 32.5061 18.5 32.5087C18.5 32.5112 18.5 32.5137 18.5 32.5163C18.5 32.5188 18.5 32.5213 18.5 32.5238C18.5 32.5264 18.5 32.5289 18.5 32.5314C18.5 32.5339 18.5 32.5365 18.5 32.539C18.5 32.5415 18.5 32.544 18.5 32.5466C18.5 32.5491 18.5 32.5516 18.5 32.5541C18.5 32.5567 18.5 32.5592 18.5 32.5617C18.5 32.5642 18.5 32.5667 18.5 32.5693C18.5 32.5718 18.5 32.5743 18.5 32.5768C18.5 32.5793 18.5 32.5819 18.5 32.5844C18.5 32.5869 18.5 32.5894 18.5 32.5919C18.5 32.5944 18.5 32.597 18.5 32.5995C18.5 32.602 18.5 32.6045 18.5 32.607C18.5 32.6095 18.5 32.6121 18.5 32.6146C18.5 32.6171 18.5 32.6196 18.5 32.6221C18.5 32.6246 18.5 32.6272 18.5 32.6297C18.5 32.6322 18.5 32.6347 18.5 32.6372C18.5 32.6397 18.5 32.6422 18.5 32.6447C18.5 32.6473 18.5 32.6498 18.5 32.6523C18.5 32.6548 18.5 32.6573 18.5 32.6598C18.5 32.6623 18.5 32.6648 18.5 32.6673C18.5 32.6699 18.5 32.6724 18.5 32.6749C18.5 32.6774 18.5 32.6799 18.5 32.6824C18.5 32.6849 18.5 32.6874 18.5 32.6899C18.5 32.6924 18.5 32.6949 18.5 32.6975C18.5 32.7 18.5 32.7025 18.5 32.705C18.5 32.7075 18.5 32.71 18.5 32.7125C18.5 32.715 18.5 32.7175 18.5 32.72C18.5 32.7225 18.5 32.725 18.5 32.7275C18.5 32.73 18.5 32.7325 18.5 32.735C18.5 32.7376 18.5 32.7401 18.5 32.7426C18.5 32.7451 18.5 32.7476 18.5 32.7501C18.5 32.7526 18.5 32.7551 18.5 32.7576C18.5 32.7601 18.5 32.7626 18.5 32.7651C18.5 32.7676 18.5 32.7701 18.5 32.7726C18.5 32.7751 18.5 32.7776 18.5 32.7801C18.5 32.7826 18.5 32.7851 18.5 32.7876C18.5 32.7901 18.5 32.7926 18.5 32.7951C18.5 32.7976 18.5 32.8001 18.5 32.8026C18.5 32.8051 18.5 32.8076 18.5 32.8101C18.5 32.8126 18.5 32.8151 18.5 32.8176C18.5 32.8201 18.5 32.8226 18.5 32.8251C18.5 32.8276 18.5 32.8301 18.5 32.8326C18.5 32.8351 18.5 32.8376 18.5 32.8401C18.5 32.8426 18.5 32.8451 18.5 32.8476C18.5 32.8501 18.5 32.8526 18.5 32.8551C18.5 32.8576 18.5 32.8601 18.5 32.8626C18.5 32.8651 18.5 32.8676 18.5 32.8701C18.5 32.8726 18.5 32.8751 18.5 32.8776C18.5 32.8801 18.5 32.8826 18.5 32.8851C18.5 32.8876 18.5 32.8901 18.5 32.8926C18.5 32.8951 18.5 32.8976 18.5 32.9001C18.5 32.9026 18.5 32.9051 18.5 32.9076C18.5 32.9101 18.5 32.9126 18.5 32.9151C18.5 32.9176 18.5 32.9201 18.5 32.9226C18.5 32.9251 18.5 32.9276 18.5 32.9301C18.5 32.9326 18.5 32.9351 18.5 32.9376C18.5 32.9401 18.5 32.9426 18.5 32.9451C18.5 32.9476 18.5 32.9501 18.5 32.9526C18.5 32.9551 18.5 32.9576 18.5 32.9601C18.5 32.9626 18.5 32.9651 18.5 32.9676C18.5 32.9702 18.5 32.9727 18.5 32.9752C18.5 32.9777 18.5 32.9802 18.5 32.9827C18.5 32.9852 18.5 32.9877 18.5 32.9902C18.5 32.9927 18.5 32.9952 18.5 32.9977C18.5 33.0002 18.5 33.0027 18.5 33.0052C18.5 33.0077 18.5 33.0102 18.5 33.0127C18.5 33.0152 18.5 33.0177 18.5 33.0202C18.5 33.0227 18.5 33.0252 18.5 33.0277C18.5 33.0302 18.5 33.0327 18.5 33.0352C18.5 33.0377 18.5 33.0402 18.5 33.0427C18.5 33.0452 18.5 33.0477 18.5 33.0502C18.5 33.0527 18.5 33.0552 18.5 33.0577C18.5 33.0602 18.5 33.0627 18.5 33.0652C18.5 33.0678 18.5 33.0703 18.5 33.0728C18.5 33.0753 18.5 33.0778 18.5 33.0803C18.5 33.0828 18.5 33.0853 18.5 33.0878C18.5 33.0903 18.5 33.0928 18.5 33.0953C18.5 33.0978 18.5 33.1003 18.5 33.1028C18.5 33.1054 18.5 33.1079 18.5 33.1104C18.5 33.1129 18.5 33.1154 18.5 33.1179C18.5 33.1204 18.5 33.1229 18.5 33.1254C18.5 33.1279 18.5 33.1304 18.5 33.1329C18.5 33.1355 18.5 33.138 18.5 33.1405C18.5 33.143 18.5 33.1455 18.5 33.148C18.5 33.1505 18.5 33.153 18.5 33.1555C18.5 33.1581 18.5 33.1606 18.5 33.1631C18.5 33.1656 18.5 33.1681 18.5 33.1706C18.5 33.1731 18.5 33.1757 18.5 33.1782C18.5 33.1807 18.5 33.1832 18.5 33.1857C18.5 33.1882 18.5 33.1907 18.5 33.1933C18.5 33.1958 18.5 33.1983 18.5 33.2008C18.5 33.2033 18.5 33.2058 18.5 33.2084C18.5 33.2109 18.5 33.2134 18.5 33.2159C18.5 33.2184 18.5 33.221 18.5 33.2235C18.5 33.226 18.5 33.2285 18.5 33.231C18.5 33.2336 18.5 33.2361 18.5 33.2386C18.5 33.2411 18.5 33.2436 18.5 33.2462C18.5 33.2487 18.5 33.2512 18.5 33.2537C18.5 33.2563 18.5 33.2588 18.5 33.2613C18.5 33.2638 18.5 33.2664 18.5 33.2689C18.5 33.2714 18.5 33.2739 18.5 33.2765C18.5 33.279 18.5 33.2815 18.5 33.284C18.5 33.2866 18.5 33.2891 18.5 33.2916C18.5 33.2942 18.5 33.2967 18.5 33.2992C18.5 33.3017 18.5 33.3043 18.5 33.3068C18.5 33.3093 18.5 33.3119 18.5 33.3144C18.5 33.3169 18.5 33.3195 18.5 33.322C18.5 33.3245 18.5 33.3271 18.5 33.3296C18.5 33.3321 18.5 33.3347 18.5 33.3372C18.5 33.3397 18.5 33.3423 18.5 33.3448C18.5 33.3474 18.5 33.3499 18.5 33.3524C18.5 33.355 18.5 33.3575 18.5 33.36C18.5 33.3626 18.5 33.3651 18.5 33.3677C18.5 33.3702 18.5 33.3728 18.5 33.3753C18.5 33.3778 18.5 33.3804 18.5 33.3829C18.5 33.3855 18.5 33.388 18.5 33.3906C18.5 33.3931 18.5 33.3956 18.5 33.3982C18.5 33.4007 18.5 33.4033 18.5 33.4058C18.5 33.4084 18.5 33.4109 18.5 33.4135C18.5 33.416 18.5 33.4186 18.5 33.4211C18.5 33.4237 18.5 33.4262 18.5 33.4288C18.5 33.4313 18.5 33.4339 18.5 33.4364C18.5 33.439 18.5 33.4416 18.5 33.4441C18.5 33.4467 18.5 33.4492 18.5 33.4518C18.5 33.4543 18.5 33.4569 18.5 33.4595C18.5 33.462 18.5 33.4646 18.5 33.4671C18.5 33.4697 18.5 33.4723 18.5 33.4748C18.5 33.4774 18.5 33.4799 18.5 33.4825C18.5 33.4851 18.5 33.4876 18.5 33.4902C18.5 33.4928 18.5 33.4953 18.5 33.4979C18.5 33.5005 18.5 33.503 18.5 33.5056C18.5 33.5082 18.5 33.5107 18.5 33.5133C18.5 33.5159 18.5 33.5184 18.5 33.521C18.5 33.5236 18.5 33.5262 18.5 33.5287C18.5 33.5313 18.5 33.5339 18.5 33.5365C18.5 33.539 18.5 33.5416 18.5 33.5442C18.5 33.5468 18.5 33.5493 18.5 33.5519C18.5 33.5545 18.5 33.5571 18.5 33.5597C18.5 33.5622 18.5 33.5648 18.5 33.5674C18.5 33.57 18.5 33.5726 18.5 33.5752C18.5 33.5777 18.5 33.5803 18.5 33.5829C18.5 33.5855 18.5 33.5881 18.5 33.5907C18.5 33.5933 18.5 33.5959 18.5 33.5985C18.5 33.601 18.5 33.6036 18.5 33.6062C18.5 33.6088 18.5 33.6114 18.5 33.614C18.5 33.6166 18.5 33.6192 18.5 33.6218C18.5 33.6244 18.5 33.627 18.5 33.6296C18.5 33.6322 18.5 33.6348 18.5 33.6374C18.5 33.64 18.5 33.6426 18.5 33.6452C18.5 33.6478 18.5 33.6504 18.5 33.653C18.5 33.6556 18.5 33.6582 18.5 33.6608C18.5 33.6634 18.5 33.666 18.5 33.6687C18.5 33.6713 18.5 33.6739 18.5 33.6765C18.5 33.6791 18.5 33.6817 18.5 33.6843C18.5 33.6869 18.5 33.6895 18.5 33.6922C18.5 33.6948 18.5 33.6974 18.5 33.7C18.5 33.7026 18.5 33.7053 18.5 33.7079C18.5 33.7105 18.5 33.7131 18.5 33.7157C18.5 33.7184 18.5 33.721 18.5 33.7236C18.5 33.7262 18.5 33.7289 18.5 33.7315C18.5 33.7341 18.5 33.7367 18.5 33.7394C18.5 33.742 18.5 33.7446 18.5 33.7473C18.5 33.7499 18.5 33.7525 18.5 33.7552C18.5 33.7578 18.5 33.7604 18.5 33.7631C18.5 33.7657 18.5 33.7683 18.5 33.771C18.5 33.7736 18.5 33.7763 18.5 33.7789C18.5 33.7816 18.5 33.7842 18.5 33.7868C18.5 33.7895 18.5 33.7921 18.5 33.7948C18.5 33.7974 18.5 33.8001 18.5 33.8027C18.5 33.8054 18.5 33.808 18.5 33.8107C18.5 33.8133 18.5 33.816 18.5 33.8186C18.5 33.8213 18.5 33.8239 18.5 33.8266C18.5 33.8293 18.5 33.8319 18.5 33.8346C18.5 33.8372 18.5 33.8399 18.5 33.8426C18.5 33.8452 18.5 33.8479 18.5 33.8505C18.5 33.8532 18.5 33.8559 18.5 33.8585C18.5 33.8612 18.5 33.8639 18.5 33.8666C18.5 33.8692 18.5 33.8719 18.5 33.8746C18.5 33.8772 18.5 33.8799 18.5 33.8826C18.5 33.8853 18.5 33.8879 18.5 33.8906C18.5 33.8933 18.5 33.896 18.5 33.8987C18.5 33.9013 18.5 33.904 18.5 33.9067C18.5 33.9094 18.5 33.9121 18.5 33.9148C18.5 33.9175 18.5 33.9201 18.5 33.9228C18.5 33.9255 18.5 33.9282 18.5 33.9309C18.5 33.9336 18.5 33.9363 18.5 33.939C18.5 33.9417 18.5 33.9444 18.5 33.9471C18.5 33.9498 18.5 33.9525 18.5 33.9552C18.5 33.9579 18.5 33.9606 18.5 33.9633C18.5 33.966 18.5 33.9687 18.5 33.9714C18.5 33.9741 18.5 33.9768 18.5 33.9795C18.5 33.9822 18.5 33.985 18.5 33.9877C18.5 33.9904 18.5 33.9931 18.5 33.9958C18.5 33.9985 18.5 34.0012 18.5 34.004C18.5 34.0067 18.5 34.0094 18.5 34.0121C18.5 34.0148 18.5 34.0176 18.5 34.0203C18.5 34.023 18.5 34.0257 18.5 34.0285C18.5 34.0312 18.5 34.0339 18.5 34.0367C18.5 34.0394 18.5 34.0421 18.5 34.0449C18.5 34.0476 18.5 34.0503 18.5 34.0531C18.5 34.0558 18.5 34.0586 18.5 34.0613C18.5 34.064 18.5 34.0668 18.5 34.0695C18.5 34.0723 18.5 34.075 18.5 34.0778C18.5 34.0805 18.5 34.0833 18.5 34.086C18.5 34.0888 18.5 34.0915 18.5 34.0943C18.5 34.097 18.5 34.0998 18.5 34.1025C18.5 34.1053 18.5 34.1081 18.5 34.1108C18.5 34.1136 18.5 34.1163 18.5 34.1191C18.5 34.1219 18.5 34.1246 18.5 34.1274C18.5 34.1302 18.5 34.1329 18.5 34.1357C18.5 34.1385 18.5 34.1413 18.5 34.144C18.5 34.1468 18.5 34.1496 18.5 34.1524C18.5 34.1551 18.5 34.1579 18.5 34.1607C18.5 34.1635 18.5 34.1663 18.5 34.1691C18.5 34.1718 18.5 34.1746 18.5 34.1774C18.5 34.1802 18.5 34.183 18.5 34.1858C18.5 34.1886 18.5 34.1914 18.5 34.1942C18.5 34.197 18.5 34.1998 18.5 34.2026C18.5 34.2054 18.5 34.2082 18.5 34.211C18.5 34.2138 18.5 34.2166 18.5 34.2194C18.5 34.2222 18.5 34.225 18.5 34.2278C18.5 34.2306 18.5 34.2334 18.5 34.2362C18.5 34.2391 18.5 34.2419 18.5 34.2447C18.5 34.2475 18.5 34.2503 18.5 34.2531C18.5 34.256 18.5 34.2588 18.5 34.2616C18.5 34.2644 18.5 34.2673 18.5 34.2701C18.5 34.2729 18.5 34.2758 18.5 34.2786C18.5 34.2814 18.5 34.2843 18.5 34.2871C18.5 34.2899 18.5 34.2928 18.5 34.2956C18.5 34.2984 18.5 34.3013 18.5 34.3041C18.5 34.307 18.5 34.3098 18.5 34.3127C18.5 34.3155 18.5 34.3184 18.5 34.3212C18.5 34.3241 18.5 34.3269 18.5 34.3298C18.5 34.3326 18.5 34.3355 18.5 34.3383C18.5 34.3412 18.5 34.3441 18.5 34.3469C18.5 34.3498 18.5 34.3527 18.5 34.3555C18.5 34.3584 18.5 34.3613 18.5 34.3641C18.5 34.367 18.5 34.3699 18.5 34.3728C18.5 34.3756 18.5 34.3785 18.5 34.3814C18.5 34.3843 18.5 34.3871 18.5 34.39C18.5 34.3929 18.5 34.3958 18.5 34.3987C18.5 34.4016 18.5 34.4045 18.5 34.4074C18.5 34.4102 18.5 34.4131 18.5 34.416C18.5 34.4189 18.5 34.4218 18.5 34.4247C18.5 34.4276 18.5 34.4305 18.5 34.4334C18.5 34.4363 18.5 34.4392 18.5 34.4422C18.5 34.4451 18.5 34.448 18.5 34.4509C18.5 34.4538 18.5 34.4567 18.5 34.4596C18.5 34.4625 18.5 34.4655 18.5 34.4684C18.5 34.4713 18.5 34.4742 18.5 34.4772C18.5 34.4801 18.5 34.483 18.5 34.4859C18.5 34.4889 18.5 34.4918 18.5 34.4947C18.5 34.4977 18.5 34.5006 18.5 34.5035C18.5 34.5065 18.5 34.5094 18.5 34.5124C18.5 34.5153 18.5 34.5182 18.5 34.5212C18.5 34.5241 18.5 34.5271 18.5 34.53C18.5 34.533 18.5 34.5359 18.5 34.5389C18.5 34.5418 18.5 34.5448 18.5 34.5478C18.5 34.5507 18.5 34.5537 18.5 34.5567C18.5 34.5596 18.5 34.5626 18.5 34.5656C18.5 34.5685 18.5 34.5715 18.5 34.5745C18.5 34.5774 18.5 34.5804 18.5 34.5834C18.5 34.5864 18.5 34.5894 18.5 34.5923C18.5 34.5953 18.5 34.5983 18.5 34.6013C18.5 34.6043 18.5 34.6073 18.5 34.6103C18.5 34.6132 18.5 34.6162 18.5 34.6192C18.5 34.6222 18.5 34.6252 18.5 34.6282C18.5 34.6312 18.5 34.6342 18.5 34.6372C18.5 34.6402 18.5 34.6433 18.5 34.6463C18.5 34.6493 18.5 34.6523 18.5 34.6553C18.5 34.6583 18.5 34.6613 18.5 34.6644C18.5 34.6674 18.5 34.6704 18.5 34.6734C18.5 34.6764 18.5 34.6795 18.5 34.6825C18.5 34.6855 18.5 34.6886 18.5 34.6916C18.5 34.6946 18.5 34.6977 18.5 34.7007C18.5 34.7037 18.5 34.7068 18.5 34.7098C18.5 34.7129 18.5 34.7159 18.5 34.719C18.5 34.722 18.5 34.7251 18.5 34.7281C18.5 34.7312 18.5 34.7342 18.5 34.7373C18.5 34.7403 18.5 34.7434 18.5 34.7465C18.5 34.7495 18.5 34.7526 18.5 34.7557C18.5 34.7587 18.5 34.7618 18.5 34.7649C18.5 34.7679 18.5 34.771 18.5 34.7741C18.5 34.7772 18.5 34.7803 18.5 34.7833C18.5 34.7864 18.5 34.7895 18.5 34.7926C18.5 34.7957 18.5 34.7988 18.5 34.8019C18.5 34.805 18.5 34.8081 18.5 34.8111C18.5 34.8142 18.5 34.8173 18.5 34.8205C18.5 34.8236 18.5 34.8267 18.5 34.8298C18.5 34.8329 18.5 34.836 18.5 34.8391C18.5 34.8422 18.5 34.8453 18.5 34.8484C18.5 34.8516 18.5 34.8547 18.5 34.8578C18.5 34.8609 18.5 34.8641 18.5 34.8672C18.5 34.8703 18.5 34.8734 18.5 34.8766C18.5 34.8797 18.5 34.8829 18.5 34.886C18.5 34.8891 18.5 34.8923 18.5 34.8954C18.5 34.8986 18.5 34.9017 18.5 34.9049C18.5 34.908 18.5 34.9112 18.5 34.9143C18.5 34.9175 18.5 34.9206 18.5 34.9238C18.5 34.9269 18.5 34.9301 18.5 34.9333C18.5 34.9364 18.5 34.9396 18.5 34.9428C18.5 34.9459 18.5 34.9491 18.5 34.9523C18.5 34.9555 18.5 34.9587 18.5 34.9618C18.5 34.965 18.5 34.9682 18.5 34.9714C18.5 34.9746 18.5 34.9778 18.5 34.981C18.5 34.9842 18.5 34.9873 18.5 34.9905C18.5 34.9937 18.5 34.9969 18.5 35.0001H21.5C21.5 34.9969 21.5 34.9937 21.5 34.9905C21.5 34.9873 21.5 34.9842 21.5 34.981C21.5 34.9778 21.5 34.9746 21.5 34.9714C21.5 34.9682 21.5 34.965 21.5 34.9618C21.5 34.9587 21.5 34.9555 21.5 34.9523C21.5 34.9491 21.5 34.9459 21.5 34.9428C21.5 34.9396 21.5 34.9364 21.5 34.9333C21.5 34.9301 21.5 34.9269 21.5 34.9238C21.5 34.9206 21.5 34.9175 21.5 34.9143C21.5 34.9112 21.5 34.908 21.5 34.9049C21.5 34.9017 21.5 34.8986 21.5 34.8954C21.5 34.8923 21.5 34.8891 21.5 34.886C21.5 34.8829 21.5 34.8797 21.5 34.8766C21.5 34.8734 21.5 34.8703 21.5 34.8672C21.5 34.8641 21.5 34.8609 21.5 34.8578C21.5 34.8547 21.5 34.8516 21.5 34.8484C21.5 34.8453 21.5 34.8422 21.5 34.8391C21.5 34.836 21.5 34.8329 21.5 34.8298C21.5 34.8267 21.5 34.8236 21.5 34.8205C21.5 34.8173 21.5 34.8142 21.5 34.8111C21.5 34.8081 21.5 34.805 21.5 34.8019C21.5 34.7988 21.5 34.7957 21.5 34.7926C21.5 34.7895 21.5 34.7864 21.5 34.7833C21.5 34.7803 21.5 34.7772 21.5 34.7741C21.5 34.771 21.5 34.7679 21.5 34.7649C21.5 34.7618 21.5 34.7587 21.5 34.7557C21.5 34.7526 21.5 34.7495 21.5 34.7465C21.5 34.7434 21.5 34.7403 21.5 34.7373C21.5 34.7342 21.5 34.7312 21.5 34.7281C21.5 34.7251 21.5 34.722 21.5 34.719C21.5 34.7159 21.5 34.7129 21.5 34.7098C21.5 34.7068 21.5 34.7037 21.5 34.7007C21.5 34.6977 21.5 34.6946 21.5 34.6916C21.5 34.6886 21.5 34.6855 21.5 34.6825C21.5 34.6795 21.5 34.6764 21.5 34.6734C21.5 34.6704 21.5 34.6674 21.5 34.6644C21.5 34.6613 21.5 34.6583 21.5 34.6553C21.5 34.6523 21.5 34.6493 21.5 34.6463C21.5 34.6433 21.5 34.6402 21.5 34.6372C21.5 34.6342 21.5 34.6312 21.5 34.6282C21.5 34.6252 21.5 34.6222 21.5 34.6192C21.5 34.6162 21.5 34.6132 21.5 34.6103C21.5 34.6073 21.5 34.6043 21.5 34.6013C21.5 34.5983 21.5 34.5953 21.5 34.5923C21.5 34.5894 21.5 34.5864 21.5 34.5834C21.5 34.5804 21.5 34.5774 21.5 34.5745C21.5 34.5715 21.5 34.5685 21.5 34.5656C21.5 34.5626 21.5 34.5596 21.5 34.5567C21.5 34.5537 21.5 34.5507 21.5 34.5478C21.5 34.5448 21.5 34.5418 21.5 34.5389C21.5 34.5359 21.5 34.533 21.5 34.53C21.5 34.5271 21.5 34.5241 21.5 34.5212C21.5 34.5182 21.5 34.5153 21.5 34.5124C21.5 34.5094 21.5 34.5065 21.5 34.5035C21.5 34.5006 21.5 34.4977 21.5 34.4947C21.5 34.4918 21.5 34.4889 21.5 34.4859C21.5 34.483 21.5 34.4801 21.5 34.4772C21.5 34.4742 21.5 34.4713 21.5 34.4684C21.5 34.4655 21.5 34.4625 21.5 34.4596C21.5 34.4567 21.5 34.4538 21.5 34.4509C21.5 34.448 21.5 34.4451 21.5 34.4422C21.5 34.4392 21.5 34.4363 21.5 34.4334C21.5 34.4305 21.5 34.4276 21.5 34.4247C21.5 34.4218 21.5 34.4189 21.5 34.416C21.5 34.4131 21.5 34.4102 21.5 34.4074C21.5 34.4045 21.5 34.4016 21.5 34.3987C21.5 34.3958 21.5 34.3929 21.5 34.39C21.5 34.3871 21.5 34.3843 21.5 34.3814C21.5 34.3785 21.5 34.3756 21.5 34.3728C21.5 34.3699 21.5 34.367 21.5 34.3641C21.5 34.3613 21.5 34.3584 21.5 34.3555C21.5 34.3527 21.5 34.3498 21.5 34.3469C21.5 34.3441 21.5 34.3412 21.5 34.3383C21.5 34.3355 21.5 34.3326 21.5 34.3298C21.5 34.3269 21.5 34.3241 21.5 34.3212C21.5 34.3184 21.5 34.3155 21.5 34.3127C21.5 34.3098 21.5 34.307 21.5 34.3041C21.5 34.3013 21.5 34.2984 21.5 34.2956C21.5 34.2928 21.5 34.2899 21.5 34.2871C21.5 34.2843 21.5 34.2814 21.5 34.2786C21.5 34.2758 21.5 34.2729 21.5 34.2701C21.5 34.2673 21.5 34.2644 21.5 34.2616C21.5 34.2588 21.5 34.256 21.5 34.2531C21.5 34.2503 21.5 34.2475 21.5 34.2447C21.5 34.2419 21.5 34.2391 21.5 34.2362C21.5 34.2334 21.5 34.2306 21.5 34.2278C21.5 34.225 21.5 34.2222 21.5 34.2194C21.5 34.2166 21.5 34.2138 21.5 34.211C21.5 34.2082 21.5 34.2054 21.5 34.2026C21.5 34.1998 21.5 34.197 21.5 34.1942C21.5 34.1914 21.5 34.1886 21.5 34.1858C21.5 34.183 21.5 34.1802 21.5 34.1774C21.5 34.1746 21.5 34.1718 21.5 34.1691C21.5 34.1663 21.5 34.1635 21.5 34.1607C21.5 34.1579 21.5 34.1551 21.5 34.1524C21.5 34.1496 21.5 34.1468 21.5 34.144C21.5 34.1413 21.5 34.1385 21.5 34.1357C21.5 34.1329 21.5 34.1302 21.5 34.1274C21.5 34.1246 21.5 34.1219 21.5 34.1191C21.5 34.1163 21.5 34.1136 21.5 34.1108C21.5 34.1081 21.5 34.1053 21.5 34.1025C21.5 34.0998 21.5 34.097 21.5 34.0943C21.5 34.0915 21.5 34.0888 21.5 34.086C21.5 34.0833 21.5 34.0805 21.5 34.0778C21.5 34.075 21.5 34.0723 21.5 34.0695C21.5 34.0668 21.5 34.064 21.5 34.0613C21.5 34.0586 21.5 34.0558 21.5 34.0531C21.5 34.0503 21.5 34.0476 21.5 34.0449C21.5 34.0421 21.5 34.0394 21.5 34.0367C21.5 34.0339 21.5 34.0312 21.5 34.0285C21.5 34.0257 21.5 34.023 21.5 34.0203C21.5 34.0176 21.5 34.0148 21.5 34.0121C21.5 34.0094 21.5 34.0067 21.5 34.004C21.5 34.0012 21.5 33.9985 21.5 33.9958C21.5 33.9931 21.5 33.9904 21.5 33.9877C21.5 33.985 21.5 33.9822 21.5 33.9795C21.5 33.9768 21.5 33.9741 21.5 33.9714C21.5 33.9687 21.5 33.966 21.5 33.9633C21.5 33.9606 21.5 33.9579 21.5 33.9552C21.5 33.9525 21.5 33.9498 21.5 33.9471C21.5 33.9444 21.5 33.9417 21.5 33.939C21.5 33.9363 21.5 33.9336 21.5 33.9309C21.5 33.9282 21.5 33.9255 21.5 33.9228C21.5 33.9201 21.5 33.9175 21.5 33.9148C21.5 33.9121 21.5 33.9094 21.5 33.9067C21.5 33.904 21.5 33.9013 21.5 33.8987C21.5 33.896 21.5 33.8933 21.5 33.8906C21.5 33.8879 21.5 33.8853 21.5 33.8826C21.5 33.8799 21.5 33.8772 21.5 33.8746C21.5 33.8719 21.5 33.8692 21.5 33.8666C21.5 33.8639 21.5 33.8612 21.5 33.8585C21.5 33.8559 21.5 33.8532 21.5 33.8505C21.5 33.8479 21.5 33.8452 21.5 33.8426C21.5 33.8399 21.5 33.8372 21.5 33.8346C21.5 33.8319 21.5 33.8293 21.5 33.8266C21.5 33.8239 21.5 33.8213 21.5 33.8186C21.5 33.816 21.5 33.8133 21.5 33.8107C21.5 33.808 21.5 33.8054 21.5 33.8027C21.5 33.8001 21.5 33.7974 21.5 33.7948C21.5 33.7921 21.5 33.7895 21.5 33.7868C21.5 33.7842 21.5 33.7816 21.5 33.7789C21.5 33.7763 21.5 33.7736 21.5 33.771C21.5 33.7683 21.5 33.7657 21.5 33.7631C21.5 33.7604 21.5 33.7578 21.5 33.7552C21.5 33.7525 21.5 33.7499 21.5 33.7473C21.5 33.7446 21.5 33.742 21.5 33.7394C21.5 33.7367 21.5 33.7341 21.5 33.7315C21.5 33.7289 21.5 33.7262 21.5 33.7236C21.5 33.721 21.5 33.7184 21.5 33.7157C21.5 33.7131 21.5 33.7105 21.5 33.7079C21.5 33.7053 21.5 33.7026 21.5 33.7C21.5 33.6974 21.5 33.6948 21.5 33.6922C21.5 33.6895 21.5 33.6869 21.5 33.6843C21.5 33.6817 21.5 33.6791 21.5 33.6765C21.5 33.6739 21.5 33.6713 21.5 33.6687C21.5 33.666 21.5 33.6634 21.5 33.6608C21.5 33.6582 21.5 33.6556 21.5 33.653C21.5 33.6504 21.5 33.6478 21.5 33.6452C21.5 33.6426 21.5 33.64 21.5 33.6374C21.5 33.6348 21.5 33.6322 21.5 33.6296C21.5 33.627 21.5 33.6244 21.5 33.6218C21.5 33.6192 21.5 33.6166 21.5 33.614C21.5 33.6114 21.5 33.6088 21.5 33.6062C21.5 33.6036 21.5 33.601 21.5 33.5985C21.5 33.5959 21.5 33.5933 21.5 33.5907C21.5 33.5881 21.5 33.5855 21.5 33.5829C21.5 33.5803 21.5 33.5777 21.5 33.5752C21.5 33.5726 21.5 33.57 21.5 33.5674C21.5 33.5648 21.5 33.5622 21.5 33.5597C21.5 33.5571 21.5 33.5545 21.5 33.5519C21.5 33.5493 21.5 33.5468 21.5 33.5442C21.5 33.5416 21.5 33.539 21.5 33.5365C21.5 33.5339 21.5 33.5313 21.5 33.5287C21.5 33.5262 21.5 33.5236 21.5 33.521C21.5 33.5184 21.5 33.5159 21.5 33.5133C21.5 33.5107 21.5 33.5082 21.5 33.5056C21.5 33.503 21.5 33.5005 21.5 33.4979C21.5 33.4953 21.5 33.4928 21.5 33.4902C21.5 33.4876 21.5 33.4851 21.5 33.4825C21.5 33.4799 21.5 33.4774 21.5 33.4748C21.5 33.4723 21.5 33.4697 21.5 33.4671C21.5 33.4646 21.5 33.462 21.5 33.4595C21.5 33.4569 21.5 33.4543 21.5 33.4518C21.5 33.4492 21.5 33.4467 21.5 33.4441C21.5 33.4416 21.5 33.439 21.5 33.4364C21.5 33.4339 21.5 33.4313 21.5 33.4288C21.5 33.4262 21.5 33.4237 21.5 33.4211C21.5 33.4186 21.5 33.416 21.5 33.4135C21.5 33.4109 21.5 33.4084 21.5 33.4058C21.5 33.4033 21.5 33.4007 21.5 33.3982C21.5 33.3956 21.5 33.3931 21.5 33.3906C21.5 33.388 21.5 33.3855 21.5 33.3829C21.5 33.3804 21.5 33.3778 21.5 33.3753C21.5 33.3728 21.5 33.3702 21.5 33.3677C21.5 33.3651 21.5 33.3626 21.5 33.36C21.5 33.3575 21.5 33.355 21.5 33.3524C21.5 33.3499 21.5 33.3474 21.5 33.3448C21.5 33.3423 21.5 33.3397 21.5 33.3372C21.5 33.3347 21.5 33.3321 21.5 33.3296C21.5 33.3271 21.5 33.3245 21.5 33.322C21.5 33.3195 21.5 33.3169 21.5 33.3144C21.5 33.3119 21.5 33.3093 21.5 33.3068C21.5 33.3043 21.5 33.3017 21.5 33.2992C21.5 33.2967 21.5 33.2942 21.5 33.2916C21.5 33.2891 21.5 33.2866 21.5 33.284C21.5 33.2815 21.5 33.279 21.5 33.2765C21.5 33.2739 21.5 33.2714 21.5 33.2689C21.5 33.2664 21.5 33.2638 21.5 33.2613C21.5 33.2588 21.5 33.2563 21.5 33.2537C21.5 33.2512 21.5 33.2487 21.5 33.2462C21.5 33.2436 21.5 33.2411 21.5 33.2386C21.5 33.2361 21.5 33.2336 21.5 33.231C21.5 33.2285 21.5 33.226 21.5 33.2235C21.5 33.221 21.5 33.2184 21.5 33.2159C21.5 33.2134 21.5 33.2109 21.5 33.2084C21.5 33.2058 21.5 33.2033 21.5 33.2008C21.5 33.1983 21.5 33.1958 21.5 33.1933C21.5 33.1907 21.5 33.1882 21.5 33.1857C21.5 33.1832 21.5 33.1807 21.5 33.1782C21.5 33.1757 21.5 33.1731 21.5 33.1706C21.5 33.1681 21.5 33.1656 21.5 33.1631C21.5 33.1606 21.5 33.1581 21.5 33.1555C21.5 33.153 21.5 33.1505 21.5 33.148C21.5 33.1455 21.5 33.143 21.5 33.1405C21.5 33.138 21.5 33.1355 21.5 33.1329C21.5 33.1304 21.5 33.1279 21.5 33.1254C21.5 33.1229 21.5 33.1204 21.5 33.1179C21.5 33.1154 21.5 33.1129 21.5 33.1104C21.5 33.1079 21.5 33.1054 21.5 33.1028C21.5 33.1003 21.5 33.0978 21.5 33.0953C21.5 33.0928 21.5 33.0903 21.5 33.0878C21.5 33.0853 21.5 33.0828 21.5 33.0803C21.5 33.0778 21.5 33.0753 21.5 33.0728C21.5 33.0703 21.5 33.0678 21.5 33.0652C21.5 33.0627 21.5 33.0602 21.5 33.0577C21.5 33.0552 21.5 33.0527 21.5 33.0502C21.5 33.0477 21.5 33.0452 21.5 33.0427C21.5 33.0402 21.5 33.0377 21.5 33.0352C21.5 33.0327 21.5 33.0302 21.5 33.0277C21.5 33.0252 21.5 33.0227 21.5 33.0202C21.5 33.0177 21.5 33.0152 21.5 33.0127C21.5 33.0102 21.5 33.0077 21.5 33.0052C21.5 33.0027 21.5 33.0002 21.5 32.9977C21.5 32.9952 21.5 32.9927 21.5 32.9902C21.5 32.9877 21.5 32.9852 21.5 32.9827C21.5 32.9802 21.5 32.9777 21.5 32.9752C21.5 32.9727 21.5 32.9702 21.5 32.9676C21.5 32.9651 21.5 32.9626 21.5 32.9601C21.5 32.9576 21.5 32.9551 21.5 32.9526C21.5 32.9501 21.5 32.9476 21.5 32.9451C21.5 32.9426 21.5 32.9401 21.5 32.9376C21.5 32.9351 21.5 32.9326 21.5 32.9301C21.5 32.9276 21.5 32.9251 21.5 32.9226C21.5 32.9201 21.5 32.9176 21.5 32.9151C21.5 32.9126 21.5 32.9101 21.5 32.9076C21.5 32.9051 21.5 32.9026 21.5 32.9001C21.5 32.8976 21.5 32.8951 21.5 32.8926C21.5 32.8901 21.5 32.8876 21.5 32.8851C21.5 32.8826 21.5 32.8801 21.5 32.8776C21.5 32.8751 21.5 32.8726 21.5 32.8701C21.5 32.8676 21.5 32.8651 21.5 32.8626C21.5 32.8601 21.5 32.8576 21.5 32.8551C21.5 32.8526 21.5 32.8501 21.5 32.8476C21.5 32.8451 21.5 32.8426 21.5 32.8401C21.5 32.8376 21.5 32.8351 21.5 32.8326C21.5 32.8301 21.5 32.8276 21.5 32.8251C21.5 32.8226 21.5 32.8201 21.5 32.8176C21.5 32.8151 21.5 32.8126 21.5 32.8101C21.5 32.8076 21.5 32.8051 21.5 32.8026C21.5 32.8001 21.5 32.7976 21.5 32.7951C21.5 32.7926 21.5 32.7901 21.5 32.7876C21.5 32.7851 21.5 32.7826 21.5 32.7801C21.5 32.7776 21.5 32.7751 21.5 32.7726C21.5 32.7701 21.5 32.7676 21.5 32.7651C21.5 32.7626 21.5 32.7601 21.5 32.7576C21.5 32.7551 21.5 32.7526 21.5 32.7501C21.5 32.7476 21.5 32.7451 21.5 32.7426C21.5 32.7401 21.5 32.7376 21.5 32.735C21.5 32.7325 21.5 32.73 21.5 32.7275C21.5 32.725 21.5 32.7225 21.5 32.72C21.5 32.7175 21.5 32.715 21.5 32.7125C21.5 32.71 21.5 32.7075 21.5 32.705C21.5 32.7025 21.5 32.7 21.5 32.6975C21.5 32.6949 21.5 32.6924 21.5 32.6899C21.5 32.6874 21.5 32.6849 21.5 32.6824C21.5 32.6799 21.5 32.6774 21.5 32.6749C21.5 32.6724 21.5 32.6699 21.5 32.6673C21.5 32.6648 21.5 32.6623 21.5 32.6598C21.5 32.6573 21.5 32.6548 21.5 32.6523C21.5 32.6498 21.5 32.6473 21.5 32.6447C21.5 32.6422 21.5 32.6397 21.5 32.6372C21.5 32.6347 21.5 32.6322 21.5 32.6297C21.5 32.6272 21.5 32.6246 21.5 32.6221C21.5 32.6196 21.5 32.6171 21.5 32.6146C21.5 32.6121 21.5 32.6095 21.5 32.607C21.5 32.6045 21.5 32.602 21.5 32.5995C21.5 32.597 21.5 32.5944 21.5 32.5919C21.5 32.5894 21.5 32.5869 21.5 32.5844C21.5 32.5819 21.5 32.5793 21.5 32.5768C21.5 32.5743 21.5 32.5718 21.5 32.5693C21.5 32.5667 21.5 32.5642 21.5 32.5617C21.5 32.5592 21.5 32.5567 21.5 32.5541C21.5 32.5516 21.5 32.5491 21.5 32.5466C21.5 32.544 21.5 32.5415 21.5 32.539C21.5 32.5365 21.5 32.5339 21.5 32.5314C21.5 32.5289 21.5 32.5264 21.5 32.5238C21.5 32.5213 21.5 32.5188 21.5 32.5163C21.5 32.5137 21.5 32.5112 21.5 32.5087C21.5 32.5061 21.5 32.5036 21.5 32.5011C21.5 32.4986 21.5 32.496 21.5 32.4935C21.5 32.491 21.5 32.4884 21.5 32.4859C21.5 32.4834 21.5 32.4808 21.5 32.4783C21.5 32.4758 21.5 32.4732 21.5 32.4707C21.5 32.4682 21.5 32.4656 21.5 32.4631C21.5 32.4606 21.5 32.458 21.5 32.4555C21.5 32.4529 21.5 32.4504 21.5 32.4479C21.5 32.4453 21.5 32.4428 21.5 32.4402C21.5 32.4377 21.5 32.4352 21.5 32.4326C21.5 32.4301 21.5 32.4275 21.5 32.425C21.5 32.4225 21.5 32.4199 21.5 32.4174C21.5 32.4148 21.5 32.4123 21.5 32.4097C21.5 32.4072 21.5 32.4046 21.5 32.4021C21.5 32.3996 21.5 32.397 21.5 32.3945C21.5 32.3919 21.5 32.3894 21.5 32.3868C21.5 32.3843 21.5 32.3817 21.5 32.3792C21.5 32.3766 21.5 32.3741 21.5 32.3715C21.5 32.369 21.5 32.3664 21.5 32.3638C21.5 32.3613 21.5 32.3587 21.5 32.3562C21.5 32.3536 21.5 32.3511 21.5 32.3485C21.5 32.346 21.5 32.3434 21.5 32.3408C21.5 32.3383 21.5 32.3357 21.5 32.3332C21.5 32.3306 21.5 32.328 21.5 32.3255C21.5 32.3229 21.5 32.3204 21.5 32.3178C21.5 32.3152 21.5 32.3127 21.5 32.3101C21.5 32.3075 21.5 32.305 21.5 32.3024C21.5 32.2998 21.5 32.2973 21.5 32.2947C21.5 32.2921 21.5 32.2896 21.5 32.287C21.5 32.2844 21.5 32.2818 21.5 32.2793C21.5 32.2767 21.5 32.2741 21.5 32.2716C21.5 32.269 21.5 32.2664 21.5 32.2638C21.5 32.2613 21.5 32.2587 21.5 32.2561C21.5 32.2535 21.5 32.2509 21.5 32.2484C21.5 32.2458 21.5 32.2432 21.5 32.2406C21.5 32.238 21.5 32.2355 21.5 32.2329C21.5 32.2303 21.5 32.2277 21.5 32.2251C21.5 32.2225 21.5 32.22 21.5 32.2174C21.5 32.2148 21.5 32.2122 21.5 32.2096C21.5 32.207 21.5 32.2044 21.5 32.2018C21.5 32.1992 21.5 32.1967 21.5 32.1941C21.5 32.1915 21.5 32.1889 21.5 32.1863C21.5 32.1837 21.5 32.1811 21.5 32.1785C21.5 32.1759 21.5 32.1733 21.5 32.1707C21.5 32.1681 21.5 32.1655 21.5 32.1629C21.5 32.1603 21.5 32.1577 21.5 32.1551C21.5 32.1525 21.5 32.1499 21.5 32.1473C21.5 32.1447 21.5 32.1421 21.5 32.1395C21.5 32.1369 21.5 32.1343 21.5 32.1316C21.5 32.129 21.5 32.1264 21.5 32.1238C21.5 32.1212 21.5 32.1186 21.5 32.116C21.5 32.1134 21.5 32.1107 21.5 32.1081C21.5 32.1055 21.5 32.1029 21.5 32.1003C21.5 32.0977 21.5 32.095 21.5 32.0924C21.5 32.0898 21.5 32.0872 21.5 32.0846C21.5 32.0819 21.5 32.0793 21.5 32.0767C21.5 32.0741 21.5 32.0714 21.5 32.0688C21.5 32.0662 21.5 32.0635 21.5 32.0609C21.5 32.0583 21.5 32.0557 21.5 32.053C21.5 32.0504 21.5 32.0478 21.5 32.0451C21.5 32.0425 21.5 32.0399 21.5 32.0372C21.5 32.0346 21.5 32.0319 21.5 32.0293C21.5 32.0267 21.5 32.024 21.5 32.0214C21.5 32.0187 21.5 32.0161 21.5 32.0135C21.5 32.0108 21.5 32.0082 21.5 32.0055C21.5 32.0029 21.5 32.0002 21.5 31.9976C21.5 31.9949 21.5 31.9923 21.5 31.9896C21.5 31.987 21.5 31.9843 21.5 31.9817C21.5 31.979 21.5 31.9764 21.5 31.9737C21.5 31.971 21.5 31.9684 21.5 31.9657C21.5 31.9631 21.5 31.9604 21.5 31.9577C21.5 31.9551 21.5 31.9524 21.5 31.9497C21.5 31.9471 21.5 31.9444 21.5 31.9417C21.5 31.9391 21.5 31.9364 21.5 31.9337C21.5 31.9311 21.5 31.9284 21.5 31.9257C21.5 31.9231 21.5 31.9204 21.5 31.9177C21.5 31.915 21.5 31.9124 21.5 31.9097C21.5 31.907 21.5 31.9043 21.5 31.9016C21.5 31.899 21.5 31.8963 21.5 31.8936C21.5 31.8909 21.5 31.8882 21.5 31.8855C21.5 31.8828 21.5 31.8802 21.5 31.8775C21.5 31.8748 21.5 31.8721 21.5 31.8694C21.5 31.8667 21.5 31.864 21.5 31.8613C21.5 31.8586 21.5 31.8559 21.5 31.8532C21.5 31.8505 21.5 31.8478 21.5 31.8451C21.5 31.8424 21.5 31.8397 21.5 31.837C21.5 31.8343 21.5 31.8316 21.5 31.8289C21.5 31.8262 21.5 31.8235 21.5 31.8208C21.5 31.8181 21.5 31.8153 21.5 31.8126C21.5 31.8099 21.5 31.8072 21.5 31.8045C21.5 31.8018 21.5 31.7991 21.5 31.7963C21.5 31.7936 21.5 31.7909 21.5 31.7882C21.5 31.7854 21.5 31.7827 21.5 31.78C21.5 31.7773 21.5 31.7745 21.5 31.7718C21.5 31.7691 21.5 31.7664 21.5 31.7636C21.5 31.7609 21.5 31.7582 21.5 31.7554C21.5 31.7527 21.5 31.75 21.5 31.7472C21.5 31.7445 21.5 31.7417 21.5 31.739C21.5 31.7363 21.5 31.7335 21.5 31.7308C21.5 31.728 21.5 31.7253 21.5 31.7225C21.5 31.7198 21.5 31.717 21.5 31.7143C21.5 31.7115 21.5 31.7088 21.5 31.706C21.5 31.7033 21.5 31.7005 21.5 31.6978C21.5 31.695 21.5 31.6922 21.5 31.6895C21.5 31.6867 21.5 31.684 21.5 31.6812C21.5 31.6784 21.5 31.6757 21.5 31.6729C21.5 31.6701 21.5 31.6673 21.5 31.6646C21.5 31.6618 21.5 31.659 21.5 31.6563C21.5 31.6535 21.5 31.6507 21.5 31.6479C21.5 31.6452 21.5 31.6424 21.5 31.6396C21.5 31.6368 21.5 31.634 21.5 31.6312C21.5 31.6285 21.5 31.6257 21.5 31.6229C21.5 31.6201 21.5 31.6173 21.5 31.6145C21.5 31.6117 21.5 31.6089 21.5 31.6061C21.5 31.6033 21.5 31.6005 21.5 31.5977C21.5 31.5949 21.5 31.5921 21.5 31.5893C21.5 31.5865 21.5 31.5837 21.5 31.5809C21.5 31.5781 21.5 31.5753 21.5 31.5725C21.5 31.5697 21.5 31.5669 21.5 31.5641C21.5 31.5612 21.5 31.5584 21.5 31.5556C21.5 31.5528 21.5 31.55 21.5 31.5472C21.5 31.5443 21.5 31.5415 21.5 31.5387C21.5 31.5359 21.5 31.533 21.5 31.5302C21.5 31.5274 21.5 31.5245 21.5 31.5217C21.5 31.5189 21.5 31.516 21.5 31.5132C21.5 31.5104 21.5 31.5075 21.5 31.5047C21.5 31.5019 21.5 31.499 21.5 31.4962C21.5 31.4933 21.5 31.4905 21.5 31.4876C21.5 31.4848 21.5 31.4819 21.5 31.4791C21.5 31.4762 21.5 31.4734 21.5 31.4705C21.5 31.4677 21.5 31.4648 21.5 31.4619C21.5 31.4591 21.5 31.4562 21.5 31.4534C21.5 31.4505 21.5 31.4476 21.5 31.4448C21.5 31.4419 21.5 31.439 21.5 31.4362C21.5 31.4333 21.5 31.4304 21.5 31.4275C21.5 31.4247 21.5 31.4218 21.5 31.4189C21.5 31.416 21.5 31.4131 21.5 31.4103C21.5 31.4074 21.5 31.4045 21.5 31.4016C21.5 31.3987 21.5 31.3958 21.5 31.3929C21.5 31.39 21.5 31.3872 21.5 31.3843C21.5 31.3814 21.5 31.3785 21.5 31.3756C21.5 31.3727 21.5 31.3698 21.5 31.3669C21.5 31.364 21.5 31.3611 21.5 31.3581C21.5 31.3552 21.5 31.3523 21.5 31.3494C21.5 31.3465 21.5 31.3436 21.5 31.3407C21.5 31.3378 21.5 31.3348 21.5 31.3319C21.5 31.329 21.5 31.3261 21.5 31.3231C21.5 31.3202 21.5 31.3173 21.5 31.3144C21.5 31.3114 21.5 31.3085 21.5 31.3056C21.5 31.3026 21.5 31.2997 21.5 31.2968C21.5 31.2938 21.5 31.2909 21.5 31.2879C21.5 31.285 21.5 31.2821 21.5 31.2791C21.5 31.2762 21.5 31.2732 21.5 31.2703C21.5 31.2673 21.5 31.2644 21.5 31.2614C21.5 31.2584 21.5 31.2555 21.5 31.2525C21.5 31.2496 21.5 31.2466 21.5 31.2436C21.5 31.2407 21.5 31.2377 21.5 31.2347C21.5 31.2318 21.5 31.2288 21.5 31.2258C21.5 31.2229 21.5 31.2199 21.5 31.2169C21.5 31.2139 21.5 31.2109 21.5 31.208C21.5 31.205 21.5 31.202 21.5 31.199C21.5 31.196 21.5 31.193 21.5 31.19C21.5 31.187 21.5 31.1841 21.5 31.1811C21.5 31.1781 21.5 31.1751 21.5 31.1721C21.5 31.1691 21.5 31.1661 21.5 31.1631C21.5 31.16 21.5 31.157 21.5 31.154C21.5 31.151 21.5 31.148 21.5 31.145C21.5 31.142 21.5 31.139 21.5 31.1359C21.5 31.1329 21.5 31.1299 21.5 31.1269C21.5 31.1239 21.5 31.1208 21.5 31.1178C21.5 31.1148 21.5 31.1117 21.5 31.1087C21.5 31.1057 21.5 31.1026 21.5 31.0996C21.5 31.0966 21.5 31.0935 21.5 31.0905C21.5 31.0874 21.5 31.0844 21.5 31.0813C21.5 31.0783 21.5 31.0752 21.5 31.0722C21.5 31.0691 21.5 31.0661 21.5 31.063C21.5 31.06 21.5 31.0569 21.5 31.0538C21.5 31.0508 21.5 31.0477 21.5 31.0446C21.5 31.0416 21.5 31.0385 21.5 31.0354C21.5 31.0324 21.5 31.0293 21.5 31.0262C21.5 31.0231 21.5 31.02 21.5 31.017C21.5 31.0139 21.5 31.0108 21.5 31.0077C21.5 31.0046 21.5 31.0015 21.5 30.9984C21.5 30.9953 21.5 30.9922 21.5 30.9891C21.5 30.986 21.5 30.9829 21.5 30.9798C21.5 30.9767 21.5 30.9736 21.5 30.9705C21.5 30.9674 21.5 30.9643 21.5 30.9612C21.5 30.9581 21.5 30.955 21.5 30.9518C21.5 30.9487 21.5 30.9456 21.5 30.9425C21.5 30.9394 21.5 30.9362 21.5 30.9331C21.5 30.93 21.5 30.9268 21.5 30.9237C21.5 30.9206 21.5 30.9174 21.5 30.9143C21.5 30.9112 21.5 30.908 21.5 30.9049C21.5 30.9017 21.5 30.8986 21.5 30.8954C21.5 30.8923 21.5 30.8891 21.5 30.886C21.5 30.8828 21.5 30.8797 21.5 30.8765C21.5 30.8733 21.5 30.8702 21.5 30.867C21.5 30.8639 21.5 30.8607 21.5 30.8575C21.5 30.8543 21.5 30.8512 21.5 30.848C21.5 30.8448 21.5 30.8416 21.5 30.8385C21.5 30.8353 21.5 30.8321 21.5 30.8289C21.5 30.8257 21.5 30.8225 21.5 30.8193C21.5 30.8161 21.5 30.8129 21.5 30.8097C21.5 30.8066 21.5 30.8034 21.5 30.8001H18.5ZM25.2823 23.4323L23.9489 22.8323L22.7178 25.568L24.0512 26.168L25.2823 23.4323ZM23.3334 22.7001H15.3334V25.7001H23.3334V22.7001ZM24.3368 25.3151L25.6702 24.1151L23.6633 21.8852L22.3299 23.0852L24.3368 25.3151ZM25.2823 16.8323L23.9489 16.2323L22.7178 18.968L24.0512 19.568L25.2823 16.8323ZM25.6702 31.9151L26.3368 31.3151L24.3299 29.0852L23.6633 29.6852L25.6702 31.9151ZM26.8334 30.2001V27.8001H23.8334V30.2001H26.8334ZM26.8334 27.8001V26.0001H23.8334V27.8001H26.8334ZM26.6446 25.2717L25.9779 24.0717L23.3555 25.5286L24.0221 26.7286L26.6446 25.2717ZM26.8334 20.6001V19.4001H23.8334V20.6001H26.8334ZM26.6446 18.6717L25.9779 17.4717L23.3555 18.9286L24.0221 20.1286L26.6446 18.6717ZM25.9779 23.7286L26.6446 22.5286L24.0221 21.0717L23.3555 22.2717L25.9779 23.7286ZM26.8334 21.8001V20.6001H23.8334V21.8001H26.8334Z" fill="black"/>
</svg>
